<svg width="23" height="23" viewBox="0 0 23 23" fill="none" xmlns="http://www.w3.org/2000/svg">
<path d="M10.6123 20.0586C11.3717 20.0586 11.9873 19.443 11.9873 18.6836C11.9873 17.9242 11.3717 17.3086 10.6123 17.3086C9.85291 17.3086 9.2373 17.9242 9.2373 18.6836C9.2373 19.443 9.85291 20.0586 10.6123 20.0586Z" fill="#555050"/>
<path d="M17.0303 20.0586C17.7897 20.0586 18.4053 19.443 18.4053 18.6836C18.4053 17.9242 17.7897 17.3086 17.0303 17.3086C16.2709 17.3086 15.6553 17.9242 15.6553 18.6836C15.6553 19.443 16.2709 20.0586 17.0303 20.0586Z" fill="#555050"/>
<path d="M20.24 7.22527H7.71067L6.65265 4.6861C6.51376 4.35165 6.27869 4.06595 5.97722 3.86522C5.67575 3.6645 5.32147 3.55778 4.95927 3.5586H2.82031V5.39193H4.96019L9.3087 15.8282C9.45081 16.1692 9.78545 16.3919 10.1549 16.3919H17.4896C17.8719 16.3919 18.2138 16.1545 18.3486 15.7979L21.0991 8.4646C21.1506 8.32581 21.1679 8.17663 21.1494 8.02975C21.1308 7.88287 21.0771 7.74263 20.9928 7.62096C20.9085 7.49928 20.796 7.39977 20.6649 7.33088C20.5339 7.26199 20.3881 7.22576 20.24 7.22527V7.22527ZM13.8222 14.5586L11.0718 11.8086H12.9054V9.0586H14.7391V11.8086H16.5727L13.8222 14.5586Z" fill="#555050"/>
</svg>
