<svg width="82" height="80" viewBox="0 0 82 80" fill="none" xmlns="http://www.w3.org/2000/svg">
<g clip-path="url(#clip0_1802_5611)">
<path d="M68.4306 64.6564C62.1898 70.8694 54.4621 75.3809 45.9837 77.7612C36.876 80.4571 26.057 81.4417 19.5515 76.589C13.046 71.7363 10.9361 61.011 9.93977 51.411C8.94343 41.811 9.09581 33.2777 12.8936 27.3934C16.6914 21.5092 24.2753 18.2623 32.1288 12.8938C39.9823 7.52527 48.1991 0 56.2636 0C64.328 0 72.2519 7.37289 76.6709 15.9062C80.8528 24.1441 82.1371 33.5507 80.3163 42.6081C78.5875 50.9587 74.4564 58.6222 68.4306 64.6564Z" fill="#EFEFEF"/>
<path d="M34.4849 47.2615H34.3677C34.3143 47.2366 34.2693 47.1968 34.2381 47.1469C34.2069 47.097 34.1908 47.0391 34.1918 46.9802V38.904H32.3515C31.307 38.904 30.3052 38.4891 29.5666 37.7505C28.828 37.0119 28.4131 36.0101 28.4131 34.9656V17.8754C28.4131 16.8309 28.828 15.8291 29.5666 15.0905C30.3052 14.3519 31.307 13.937 32.3515 13.937H69.0285C70.071 13.9401 71.0697 14.3564 71.8058 15.0947C72.5419 15.8329 72.9552 16.8329 72.9552 17.8754V34.9656C72.9552 36.0081 72.5419 37.0081 71.8058 37.7463C71.0697 38.4846 70.071 38.9009 69.0285 38.904H42.9596L34.6841 47.1795C34.6584 47.2061 34.6274 47.2272 34.5931 47.2413C34.5588 47.2554 34.522 47.2623 34.4849 47.2615Z" fill="#FFD801"/>
<path d="M69.0285 14.23C69.9954 14.23 70.9226 14.6141 71.6062 15.2977C72.2899 15.9814 72.674 16.9086 72.674 17.8754V34.9655C72.6755 35.4437 72.5827 35.9175 72.4007 36.3597C72.2188 36.8019 71.9514 37.2039 71.6138 37.5425C71.2763 37.8812 70.8752 38.1499 70.4335 38.3333C69.9919 38.5166 69.5184 38.611 69.0403 38.611H42.8425L34.485 46.9685V38.611H32.3516C31.3848 38.611 30.4576 38.2269 29.7739 37.5433C29.0903 36.8596 28.7062 35.9324 28.7062 34.9655V17.8754C28.7062 16.9086 29.0903 15.9814 29.7739 15.2977C30.4576 14.6141 31.3848 14.23 32.3516 14.23H69.0285ZM69.0285 13.6439H32.3516C31.2314 13.647 30.1581 14.0942 29.3671 14.8875C28.576 15.6807 28.1318 16.7552 28.1318 17.8754V34.9655C28.1318 36.0878 28.5777 37.1641 29.3712 37.9577C30.1648 38.7512 31.2411 39.1971 32.3633 39.1971H33.9106V46.9685C33.9094 47.0845 33.942 47.1984 34.0045 47.2962C34.0669 47.3941 34.1565 47.4716 34.2622 47.5194H34.485C34.6415 47.5209 34.7926 47.4621 34.9069 47.3553L43.1121 39.1502H69.0285C70.1488 39.1471 71.2221 38.6999 72.0131 37.9067C72.8041 37.1134 73.2483 36.0389 73.2483 34.9187V17.8754C73.2483 16.7552 72.8041 15.6807 72.0131 14.8875C71.2221 14.0942 70.1488 13.647 69.0285 13.6439Z" fill="#545454"/>
<path d="M41.9869 23.5018C41.9924 23.1128 41.9087 22.7277 41.742 22.3762C41.5754 22.0246 41.3303 21.716 41.0257 21.474C40.4025 21.0011 39.6395 20.7495 38.8572 20.759C38.4925 20.7236 38.1243 20.7614 37.7743 20.87C37.4244 20.9787 37.0996 21.1562 36.819 21.392C36.5385 21.6278 36.3078 21.9171 36.1405 22.2432C35.9732 22.5693 35.8727 22.9254 35.8448 23.2908C35.8448 24.0762 36.1964 24.1817 36.5832 24.1817C37.2162 24.1817 37.4975 23.8652 37.4975 23.6308C37.4897 23.2639 37.628 22.909 37.8819 22.6441C38.1358 22.3792 38.4845 22.2261 38.8514 22.2183C39.2182 22.2105 39.5731 22.3488 39.838 22.6027C40.1029 22.8566 40.256 23.2053 40.2638 23.5721C40.2638 24.6036 39.1854 25.4007 38.0367 26.2447C36.888 27.0886 35.6924 27.9795 35.6924 29.0461V30.4762C35.6924 30.6872 36.1026 30.8982 36.4074 30.8982H41.6118C41.7759 30.8982 42.0221 30.5934 42.0221 30.1714C42.0221 29.7494 41.7759 29.4681 41.6118 29.4681H37.5092V29.0579C37.5092 28.3897 38.2829 27.8857 39.1737 27.241C40.4045 26.3619 41.9869 25.2835 41.9869 23.5018Z" fill="#545454"/>
<path d="M49.0431 27.0886H48.1405V25.7875C48.1405 25.5883 47.8709 25.3773 47.2731 25.3773C46.6753 25.3773 46.4175 25.5883 46.4175 25.7875V27.0886H44.4248L47.2145 21.4974C47.2228 21.447 47.2228 21.3955 47.2145 21.3451C47.2145 21.1575 47.027 21.0169 46.9215 20.9465C46.7513 20.8407 46.5585 20.7765 46.3589 20.759C46.212 20.7545 46.0671 20.7932 45.9421 20.8703C45.8171 20.9474 45.7175 21.0595 45.6556 21.1927L42.2797 27.8154C42.2251 27.9119 42.1968 28.021 42.1977 28.1319C42.191 28.1983 42.1985 28.2653 42.2198 28.3286C42.2411 28.3918 42.2757 28.4498 42.3212 28.4986C42.3666 28.5474 42.422 28.586 42.4836 28.6117C42.5452 28.6374 42.6116 28.6496 42.6783 28.6476H46.4175V30.4762C46.4175 30.6755 46.7222 30.8982 47.2731 30.8982C47.8241 30.8982 48.1405 30.6755 48.1405 30.4762V28.6359H49.0431C49.1838 28.6359 49.4651 28.2842 49.4651 27.8623C49.4651 27.4403 49.2307 27.0886 49.0431 27.0886Z" fill="#545454"/>
<path d="M56.6503 20.1612C56.5771 20.1565 56.504 20.1727 56.4397 20.208C56.3754 20.2433 56.3224 20.2962 56.2869 20.3604L51.1529 30.9099C51.1417 30.9601 51.1417 31.0121 51.1529 31.0623C51.1646 31.197 51.2266 31.3224 51.3265 31.4136C51.4263 31.5048 51.5568 31.5551 51.6921 31.5546C51.7716 31.5579 51.8507 31.5415 51.9224 31.5067C51.994 31.4719 52.0558 31.4199 52.1023 31.3553L57.2481 20.8058C57.2616 20.7559 57.2616 20.7034 57.2481 20.6535C57.2333 20.5093 57.1622 20.3767 57.0503 20.2846C56.9384 20.1924 56.7947 20.1481 56.6503 20.1612Z" fill="#545454"/>
<path d="M64.9961 20.759H59.78C59.4049 20.759 59.0649 21.0169 59.0649 21.181V23.4432C59.0649 23.6425 59.44 23.8652 59.9089 23.8652C60.3778 23.8652 60.788 23.619 60.788 23.4432V22.189H63.9646V23.5604V23.6308L60.366 29.8549C60.3231 29.9296 60.3028 30.0151 60.3074 30.1011C60.3074 30.5934 60.917 30.9685 61.4796 30.9685C61.7961 30.9685 61.8547 30.863 61.8781 30.8161L65.3008 24.2637C65.5261 23.8781 65.6735 23.452 65.7345 23.0095V21.181C65.6661 21.0462 65.5597 20.9344 65.4285 20.8594C65.2973 20.7844 65.1469 20.7495 64.9961 20.759Z" fill="#545454"/>
<path d="M39.6657 73.1311C31.1676 73.1311 20.9111 67.9854 12.8818 59.6864C0.257666 46.6403 -3.51669 29.726 4.54778 21.9546C4.70597 21.8122 4.89144 21.7035 5.09294 21.635C5.29443 21.5664 5.50775 21.5396 5.71994 21.556C7.37269 21.556 10.139 23.2674 12.6122 25.8227C15.2965 28.6125 19.7624 34.778 18.3441 36.1612C16.8033 37.6702 15.9185 39.7251 15.8812 41.8815C15.8439 44.0378 16.6571 46.1222 18.1448 47.6835L25.084 54.8571C26.5946 56.3964 28.6504 57.279 30.8067 57.3141C32.9631 57.3492 35.0465 56.534 36.6064 55.0447C36.7079 54.9538 36.8265 54.8841 36.9554 54.8398C37.0842 54.7955 37.2206 54.7775 37.3566 54.7868C39.3844 54.7868 44.202 58.4674 46.7339 61.1165C50.0511 64.5275 51.5983 68.0322 50.3324 69.2513C47.4326 71.8934 43.609 73.2872 39.6892 73.1311H39.6657Z" fill="white"/>
<path d="M5.67306 21.8491C7.20859 21.8491 9.8694 23.4667 12.3544 26.022C15.4489 29.222 19.1881 34.8835 18.0862 35.9502C16.4854 37.5129 15.5664 39.6445 15.529 41.8814C15.4917 44.1182 16.3391 46.2793 17.887 47.8945L24.8262 55.0916C26.3858 56.6981 28.5185 57.6211 30.7572 57.6584C32.9959 57.6958 35.1582 56.8444 36.7705 55.2909C36.9203 55.164 37.1139 55.1008 37.3097 55.115C39.1031 55.115 43.7566 58.5143 46.4994 61.3509C49.5939 64.5509 51.1881 68.0088 50.1097 69.0755C47.2659 71.661 43.5176 73.0213 39.6775 72.8616C31.4723 72.8616 21.4152 68.0909 13.1046 59.4989C0.562438 46.5348 -3.16503 29.8315 4.74705 22.1656C5.00278 21.9436 5.33497 21.8301 5.67306 21.8491ZM5.67306 21.263C5.18167 21.2406 4.70134 21.4133 4.3368 21.7436C0.36317 25.6 -0.937929 31.7187 0.679654 38.9744C2.29724 46.2301 6.54046 53.5561 12.6709 59.8857C20.7471 68.2432 31.0972 73.4242 39.6306 73.4242C43.6257 73.5842 47.5224 72.1604 50.4731 69.4623C50.9888 68.9583 51.3873 67.915 50.3793 65.7348C49.4756 63.9657 48.2965 62.3515 46.8862 60.9524C44.2958 58.2799 39.3844 54.5407 37.2745 54.5407C36.9256 54.5244 36.5844 54.6465 36.3251 54.8806C34.8258 56.3276 32.8136 57.1206 30.7302 57.0855C28.6469 57.0503 26.6626 56.1899 25.213 54.6931L18.2738 47.5312C17.5514 46.7826 16.9839 45.8987 16.604 44.9303C16.2241 43.9618 16.0392 42.9279 16.0598 41.8878C16.0805 40.8477 16.3064 39.822 16.7246 38.8694C17.1427 37.9169 17.7449 37.0563 18.4965 36.337C18.9771 35.8799 19.3756 34.8601 17.3243 31.4491C16.0304 29.3391 14.5135 27.3742 12.7998 25.5883C10.2445 22.9392 7.45474 21.2279 5.70822 21.2279L5.67306 21.263Z" fill="#545454"/>
<path d="M16.4104 59.241C4.11442 46.5583 0.304892 30.2769 7.61918 22.4235C6.3298 21.8022 5.27486 21.6616 4.74738 22.1656C-3.16471 29.8315 0.562768 46.5348 13.0932 59.4755C22.4705 69.2161 34.1921 74.0454 42.8309 72.5802C34.6844 72.5333 24.6155 67.7978 16.4104 59.241Z" fill="#DEDEDE"/>
<path d="M39.1968 55.7011C38.0246 55.115 37.1455 54.8923 36.7704 55.2557C35.7486 56.2259 34.499 56.9233 33.1367 57.2835C35.2852 57.5565 37.4561 56.9897 39.1968 55.7011Z" fill="#DEDEDE"/>
<path d="M36.8877 44.5421V38.611H34.7544C33.7876 38.611 32.8603 38.2269 32.1767 37.5432C31.493 36.8596 31.109 35.9324 31.109 34.9655V17.8754C31.109 16.9086 31.493 15.9814 32.1767 15.2977C32.8603 14.6141 33.7876 14.23 34.7544 14.23H32.4101C31.4432 14.23 30.516 14.6141 29.8324 15.2977C29.1487 15.9814 28.7646 16.9086 28.7646 17.8754V34.9655C28.7646 35.9324 29.1487 36.8596 29.8324 37.5432C30.516 38.2269 31.4432 38.611 32.4101 38.611H34.5434V46.9685L36.8877 44.5421Z" fill="#FFD801"/>
</g>
<defs>
<clipPath id="clip0_1802_5611">
<rect width="81.1135" height="80" fill="white"/>
</clipPath>
</defs>
</svg>
