<svg width="26" height="26" viewBox="0 0 26 26" fill="none" xmlns="http://www.w3.org/2000/svg">
<path d="M0.84375 0.6875C0.619974 0.6875 0.405362 0.776395 0.247129 0.934629C0.0888949 1.09286 0 1.30747 0 1.53125C0 1.75503 0.0888949 1.96964 0.247129 2.12787C0.405362 2.28611 0.619974 2.375 0.84375 2.375H2.71688L3.39356 5.08681L5.92144 18.5615C5.95763 18.7549 6.06024 18.9295 6.21154 19.0552C6.36283 19.1809 6.55329 19.2498 6.75 19.25H8.4375C7.54239 19.25 6.68395 19.6056 6.05101 20.2385C5.41808 20.8715 5.0625 21.7299 5.0625 22.625C5.0625 23.5201 5.41808 24.3785 6.05101 25.0115C6.68395 25.6444 7.54239 26 8.4375 26C9.33261 26 10.1911 25.6444 10.824 25.0115C11.4569 24.3785 11.8125 23.5201 11.8125 22.625C11.8125 21.7299 11.4569 20.8715 10.824 20.2385C10.1911 19.6056 9.33261 19.25 8.4375 19.25H20.25C19.3549 19.25 18.4965 19.6056 17.8635 20.2385C17.2306 20.8715 16.875 21.7299 16.875 22.625C16.875 23.5201 17.2306 24.3785 17.8635 25.0115C18.4965 25.6444 19.3549 26 20.25 26C21.1451 26 22.0035 25.6444 22.6365 25.0115C23.2694 24.3785 23.625 23.5201 23.625 22.625C23.625 21.7299 23.2694 20.8715 22.6365 20.2385C22.0035 19.6056 21.1451 19.25 20.25 19.25H21.9375C22.1342 19.2498 22.3247 19.1809 22.476 19.0552C22.6273 18.9295 22.7299 18.7549 22.7661 18.5615L25.2973 5.0615C25.3201 4.93972 25.3158 4.81442 25.2847 4.6945C25.2536 4.57457 25.1965 4.46297 25.1174 4.36761C25.0383 4.27225 24.9392 4.19547 24.8271 4.14274C24.715 4.09001 24.5926 4.06261 24.4688 4.0625H4.87688L4.19344 1.32706C4.14789 1.14445 4.0426 0.982304 3.8943 0.866417C3.746 0.750529 3.56321 0.687552 3.375 0.6875H0.84375ZM7.45031 17.5625L5.23462 5.75H23.4529L21.2372 17.5625H7.45031ZM10.125 22.625C10.125 23.0726 9.94721 23.5018 9.63074 23.8182C9.31427 24.1347 8.88505 24.3125 8.4375 24.3125C7.98995 24.3125 7.56073 24.1347 7.24426 23.8182C6.92779 23.5018 6.75 23.0726 6.75 22.625C6.75 22.1774 6.92779 21.7482 7.24426 21.4318C7.56073 21.1153 7.98995 20.9375 8.4375 20.9375C8.88505 20.9375 9.31427 21.1153 9.63074 21.4318C9.94721 21.7482 10.125 22.1774 10.125 22.625ZM21.9375 22.625C21.9375 23.0726 21.7597 23.5018 21.4432 23.8182C21.1268 24.1347 20.6976 24.3125 20.25 24.3125C19.8024 24.3125 19.3732 24.1347 19.0568 23.8182C18.7403 23.5018 18.5625 23.0726 18.5625 22.625C18.5625 22.1774 18.7403 21.7482 19.0568 21.4318C19.3732 21.1153 19.8024 20.9375 20.25 20.9375C20.6976 20.9375 21.1268 21.1153 21.4432 21.4318C21.7597 21.7482 21.9375 22.1774 21.9375 22.625Z" fill="#262626"/>
</svg>
