<svg width="78" height="80" viewBox="0 0 78 80" fill="none" xmlns="http://www.w3.org/2000/svg">
<g clip-path="url(#clip0_1802_5583)">
<path d="M60.9523 64.6564C54.7006 70.8792 46.9551 75.3916 38.4585 77.7612C29.3508 80.4571 18.5318 81.4417 12.0263 76.589C5.5208 71.7363 3.41091 61.011 2.41458 51.411C1.41824 41.811 1.57062 33.2777 5.39186 27.3934C9.21311 21.5092 16.7501 18.2623 24.6153 12.8938C32.4805 7.52527 40.6622 0 48.7384 0C56.8146 0 64.7267 7.37289 69.1574 15.9062C73.3407 24.1438 74.621 33.5522 72.7911 42.6081C71.0742 50.9529 66.9598 58.6154 60.9523 64.6564Z" fill="#EFEFEF"/>
<path d="M53.4151 63.7421C53.3374 63.7421 53.2629 63.7112 53.2079 63.6563C53.1529 63.6013 53.1221 63.5268 53.1221 63.4491V32.1993C53.1221 32.1215 53.1529 32.047 53.2079 31.992C53.2629 31.9371 53.3374 31.9062 53.4151 31.9062H67.0122C68.0945 31.9085 69.1544 32.2153 70.0706 32.7915C70.9868 33.3678 71.7223 34.1902 72.1931 35.1648L76.2136 43.37C76.604 44.1607 76.8047 45.0317 76.7997 45.9135V60.6242C76.7936 61.4512 76.4615 62.2425 75.8755 62.8262C75.2896 63.4099 74.4971 63.7391 73.67 63.7421H53.4151Z" fill="#FFD801"/>
<path d="M67.0123 32.1993C68.037 32.2038 69.0403 32.4935 69.9098 33.0359C70.7793 33.5783 71.4806 34.3519 71.9353 35.2703L75.9558 43.37C76.3244 44.1212 76.513 44.9479 76.5068 45.7846V60.6242C76.5037 61.3744 76.2034 62.0929 75.6718 62.6224C75.1402 63.1518 74.4204 63.4491 73.6701 63.4491H53.4152V32.1993H67.0123ZM67.0123 31.6132H53.4152C53.2597 31.6132 53.1107 31.6749 53.0008 31.7848C52.8908 31.8947 52.8291 32.0438 52.8291 32.1993V63.4491C52.8291 63.6045 52.8908 63.7536 53.0008 63.8635C53.1107 63.9734 53.2597 64.0351 53.4152 64.0351H73.6701C74.5729 64.0321 75.4382 63.6737 76.0787 63.0376C76.7193 62.4014 77.0836 61.5386 77.0928 60.6359V45.8198C77.0963 44.889 76.8836 43.9701 76.4716 43.1355L72.4628 35.0007C71.9565 33.9899 71.178 33.1405 70.215 32.5482C69.252 31.956 68.1428 31.6443 67.0123 31.6483V31.6132Z" fill="#232323"/>
<path d="M59.0415 49.43C58.8332 49.4347 58.6262 49.3979 58.4323 49.3218C58.2384 49.2457 58.0616 49.1318 57.9122 48.9867C57.7627 48.8416 57.6436 48.6683 57.5618 48.4768C57.48 48.2852 57.4371 48.0793 57.4356 47.8711V37.8022C57.434 37.597 57.4733 37.3936 57.5511 37.2038C57.6289 37.0139 57.7437 36.8414 57.8887 36.6964C58.0338 36.5513 58.2063 36.4365 58.3961 36.3587C58.586 36.2809 58.7894 36.2417 58.9946 36.2432H66.977C67.2439 36.2399 67.5061 36.3132 67.7326 36.4545C67.9591 36.5958 68.1403 36.7991 68.2546 37.0403L72.0993 44.8469C72.3059 45.2621 72.4142 45.7194 72.4158 46.1832V48.1289C72.4158 48.474 72.2787 48.805 72.0347 49.049C71.7907 49.293 71.4598 49.43 71.1147 49.43H59.0415Z" fill="white"/>
<path d="M67.0122 36.5363C67.2238 36.5312 67.4322 36.5885 67.6114 36.7011C67.7907 36.8136 67.9329 36.9764 68.0202 37.1692L71.8766 44.9758C72.0516 45.3425 72.1475 45.7418 72.158 46.148V48.0938C72.1595 48.2266 72.1345 48.3584 72.0844 48.4814C72.0343 48.6044 71.9601 48.7162 71.8662 48.8101C71.7723 48.904 71.6605 48.9782 71.5375 49.0283C71.4145 49.0784 71.2827 49.1034 71.1499 49.1018H59.0415C58.7046 49.1018 58.3814 48.9688 58.1422 48.7318C57.9029 48.4947 57.7669 48.1727 57.7638 47.8359V37.8022C57.7638 37.4664 57.8972 37.1444 58.1346 36.907C58.372 36.6696 58.694 36.5363 59.0298 36.5363H67.0122ZM67.0122 35.9502H59.0298C58.5386 35.9502 58.0675 36.1453 57.7202 36.4926C57.3729 36.8399 57.1777 37.311 57.1777 37.8022V47.8711C57.1808 48.3633 57.3786 48.8344 57.7277 49.1813C58.0769 49.5283 58.5492 49.7231 59.0415 49.7231H71.1499C71.5727 49.7231 71.9782 49.5551 72.2771 49.2562C72.5761 48.9572 72.744 48.5517 72.744 48.1289V46.1831C72.7404 45.6756 72.6243 45.1752 72.4041 44.7179L68.5477 36.9113C68.4084 36.6226 68.1904 36.3792 67.9187 36.2091C67.647 36.0391 67.3327 35.9493 67.0122 35.9502Z" fill="#232323"/>
<path d="M2.73106 63.7304C2.08444 63.7304 1.4643 63.4735 1.00707 63.0163C0.549839 62.5591 0.292969 61.9389 0.292969 61.2923V55.7714C0.292969 55.6937 0.323843 55.6192 0.378798 55.5642C0.433754 55.5093 0.50829 55.4784 0.586009 55.4784H53.4153C53.493 55.4784 53.5676 55.5093 53.6225 55.5642C53.6775 55.6192 53.7084 55.6937 53.7084 55.7714V63.4374C53.7084 63.5151 53.6775 63.5896 53.6225 63.6446C53.5676 63.6995 53.493 63.7304 53.4153 63.7304H2.73106Z" fill="#CCCCCC"/>
<path d="M53.4154 55.7714V63.4374H2.73114C2.44901 63.4389 2.16937 63.3845 1.90842 63.2773C1.64747 63.17 1.41038 63.0121 1.21089 62.8126C1.01139 62.6131 0.853446 62.376 0.746197 62.115C0.638948 61.8541 0.584526 61.5744 0.586081 61.2923V55.7714H53.4154ZM53.4154 55.1854H0.586081C0.430642 55.1854 0.28157 55.2471 0.171659 55.357C0.0617476 55.4669 0 55.616 0 55.7714L0 61.2923C0 62.0167 0.287744 62.7113 0.799931 63.2235C1.31212 63.7357 2.00679 64.0235 2.73114 64.0235H53.4154C53.5708 64.0235 53.7199 63.9617 53.8298 63.8518C53.9397 63.7419 54.0015 63.5928 54.0015 63.4374V55.7714C54.0015 55.616 53.9397 55.4669 53.8298 55.357C53.7199 55.2471 53.5708 55.1854 53.4154 55.1854Z" fill="#232323"/>
<path d="M63.8242 71.4081C68.2198 71.4081 71.7832 67.8447 71.7832 63.4491C71.7832 59.0535 68.2198 55.4901 63.8242 55.4901C59.4286 55.4901 55.8652 59.0535 55.8652 63.4491C55.8652 67.8447 59.4286 71.4081 63.8242 71.4081Z" fill="white"/>
<path d="M63.8243 55.7832C65.3438 55.7808 66.8298 56.2295 68.0942 57.0722C69.3585 57.9149 70.3444 59.1139 70.927 60.5173C71.5095 61.9207 71.6626 63.4654 71.3667 64.9558C71.0708 66.4462 70.3394 67.8153 69.2649 68.8897C68.1905 69.9642 66.8214 70.6956 65.3309 70.9915C63.8405 71.2874 62.2958 71.1343 60.8925 70.5518C59.4891 69.9692 58.2901 68.9834 57.4474 67.719C56.6046 66.4546 56.156 64.9686 56.1583 63.4491C56.1583 61.416 56.966 59.4661 58.4036 58.0285C59.8413 56.5908 61.7911 55.7832 63.8243 55.7832ZM63.8243 55.1971C62.2015 55.1971 60.6151 55.6783 59.2657 56.5799C57.9164 57.4815 56.8647 58.763 56.2437 60.2622C55.6227 61.7615 55.4602 63.4113 55.7768 65.0029C56.0934 66.5946 56.8749 68.0566 58.0224 69.2041C59.1699 70.3516 60.6319 71.1331 62.2235 71.4497C63.8152 71.7663 65.4649 71.6038 66.9642 70.9828C68.4635 70.3617 69.745 69.3101 70.6466 67.9607C71.5482 66.6114 72.0294 65.025 72.0294 63.4022C72.0141 61.2308 71.1447 59.1527 69.6092 57.6173C68.0738 56.0818 65.9957 55.2124 63.8243 55.1971Z" fill="#232323"/>
<path d="M63.8241 66.8952C63.143 66.8929 62.4779 66.6888 61.9127 66.3088C61.3475 65.9287 60.9077 65.3897 60.6486 64.7598C60.3896 64.1298 60.323 63.4373 60.4573 62.7696C60.5916 62.1019 60.9207 61.4889 61.4031 61.0082C61.8856 60.5274 62.4996 60.2003 63.1678 60.0683C63.836 59.9363 64.5283 60.0052 65.1573 60.2664C65.7863 60.5275 66.3238 60.9693 66.702 61.5357C67.0801 62.1022 67.282 62.768 67.282 63.4491C67.282 63.9026 67.1924 64.3517 67.0185 64.7706C66.8446 65.1894 66.5897 65.5699 66.2685 65.89C65.9472 66.2102 65.5659 66.4638 65.1465 66.6363C64.727 66.8088 64.2776 66.8968 63.8241 66.8952Z" fill="#CCCCCC"/>
<path d="M63.8242 60.296C64.4478 60.296 65.0574 60.4809 65.5759 60.8274C66.0945 61.1738 66.4986 61.6663 66.7372 62.2424C66.9759 62.8186 67.0383 63.4526 66.9167 64.0642C66.795 64.6759 66.4947 65.2377 66.0537 65.6787C65.6128 66.1196 65.0509 66.4199 64.4393 66.5416C63.8277 66.6633 63.1937 66.6008 62.6175 66.3622C62.0414 66.1235 61.5489 65.7194 61.2024 65.2009C60.856 64.6823 60.671 64.0727 60.671 63.4491C60.6741 62.6138 61.0073 61.8136 61.598 61.2229C62.1886 60.6323 62.9888 60.2991 63.8242 60.296ZM63.8242 59.7099C63.0851 59.7122 62.3633 59.9335 61.75 60.3457C61.1366 60.758 60.6592 61.3428 60.378 62.0263C60.0967 62.7097 60.0244 63.4612 60.17 64.1857C60.3156 64.9103 60.6726 65.5754 61.196 66.0972C61.7194 66.619 62.3857 66.9739 63.1107 67.1173C63.8357 67.2606 64.5869 67.1859 65.2695 66.9025C65.9521 66.6192 66.5354 66.1399 66.9457 65.5252C67.3561 64.9106 67.5751 64.1881 67.5751 63.4491C67.5751 62.9571 67.478 62.4699 67.2893 62.0154C67.1007 61.561 66.8242 61.1483 66.4757 60.8009C66.1273 60.4535 65.7137 60.1784 65.2587 59.9911C64.8037 59.8039 64.3162 59.7083 63.8242 59.7099Z" fill="#232323"/>
<path d="M2.93029 61.2923V55.7714H0.58597V61.2923C0.584415 61.5744 0.638838 61.8541 0.746086 62.115C0.853335 62.376 1.01128 62.6131 1.21078 62.8126C1.41027 63.0121 1.64736 63.17 1.90831 63.2773C2.16926 63.3845 2.4489 63.4389 2.73102 63.4374H5.07535C4.79322 63.4389 4.51359 63.3845 4.25263 63.2773C3.99168 63.17 3.7546 63.0121 3.5551 62.8126C3.3556 62.6131 3.19766 62.376 3.09041 62.115C2.98316 61.8541 2.92874 61.5744 2.93029 61.2923Z" fill="#AAAAAA"/>
<path d="M0.586009 56.0645C0.50829 56.0645 0.433754 56.0336 0.378798 55.9786C0.323843 55.9237 0.292969 55.8491 0.292969 55.7714V15.9179C0.292964 14.9469 0.677894 14.0155 1.36341 13.3278C2.04892 12.6401 2.9791 12.2522 3.95011 12.2491H50.0629C51.0339 12.2522 51.9641 12.6401 52.6496 13.3278C53.3351 14.0155 53.7201 14.9469 53.7201 15.9179V55.7714C53.7201 55.8491 53.6892 55.9237 53.6342 55.9786C53.5793 56.0336 53.5048 56.0645 53.427 56.0645H0.586009Z" fill="white"/>
<path d="M50.063 12.5187C50.9552 12.5187 51.8109 12.8731 52.4418 13.504C53.0727 14.1349 53.4271 14.9906 53.4271 15.8828V55.7363H0.586081V15.8828C0.586081 14.9906 0.940512 14.1349 1.5714 13.504C2.2023 12.8731 3.05797 12.5187 3.95018 12.5187H50.063ZM50.063 11.9326H3.95018C3.43144 11.9326 2.91777 12.0348 2.43851 12.2333C1.95926 12.4318 1.52379 12.7228 1.15698 13.0896C0.790173 13.4564 0.499205 13.8918 0.30069 14.3711C0.102174 14.8504 0 15.364 0 15.8828L0 55.7363C0 55.8917 0.0617476 56.0408 0.171659 56.1507C0.28157 56.2606 0.430642 56.3223 0.586081 56.3223H53.4154C53.571 56.3195 53.7197 56.2571 53.8308 56.1482C53.942 56.0392 54.0072 55.8918 54.0132 55.7363V15.8828C54.0132 14.8351 53.597 13.8304 52.8562 13.0896C52.1154 12.3488 51.1107 11.9326 50.063 11.9326Z" fill="#232323"/>
<path d="M32.059 31.7538C31.8553 31.7535 31.6546 31.7053 31.4729 31.6132L26.2099 28.882C26.1134 28.8274 26.0043 28.7991 25.8934 28.8C25.7823 28.7968 25.6725 28.8252 25.5769 28.882L20.3022 31.6483C20.121 31.7417 19.92 31.79 19.7161 31.789C19.3893 31.7863 19.0755 31.6608 18.837 31.4373C18.7107 31.3185 18.6102 31.175 18.5416 31.0157C18.473 30.8564 18.4379 30.6848 18.4385 30.5113V12.5069C18.4385 12.4292 18.4694 12.3547 18.5243 12.2997C18.5793 12.2448 18.6538 12.2139 18.7315 12.2139H33.0436C33.1213 12.2139 33.1959 12.2448 33.2508 12.2997C33.3058 12.3547 33.3366 12.4292 33.3366 12.5069V30.4762C33.3366 30.815 33.202 31.14 32.9624 31.3796C32.7228 31.6192 32.3978 31.7538 32.059 31.7538Z" fill="#FFD801"/>
<path d="M33.0437 12.5187V30.4762C33.0437 30.7373 32.9399 30.9878 32.7553 31.1724C32.5706 31.3571 32.3202 31.4608 32.0591 31.4608C31.9044 31.4607 31.7519 31.4246 31.6136 31.3553L26.3389 28.6242C26.2035 28.5462 26.0497 28.5057 25.8935 28.5069C25.7333 28.5042 25.5754 28.5447 25.4363 28.6242L20.1733 31.3553C20.0305 31.4236 19.8745 31.4596 19.7162 31.4608C19.4591 31.4547 19.2147 31.3482 19.0351 31.1642C18.8555 30.9803 18.755 30.7333 18.755 30.4762V12.5187H33.0437ZM33.0437 11.9326H18.755C18.5996 11.9326 18.4505 11.9943 18.3406 12.1042C18.2307 12.2142 18.1689 12.3632 18.1689 12.5187V30.4762C18.1689 30.8927 18.3344 31.2923 18.629 31.5868C18.9236 31.8814 19.3231 32.0469 19.7396 32.0469C19.9889 32.0486 20.2346 31.9881 20.4547 31.871L25.7294 29.1399C25.7907 29.1223 25.8557 29.1223 25.9169 29.1399C25.9744 29.1239 26.0352 29.1239 26.0928 29.1399L31.3675 31.871C31.588 31.9868 31.8334 32.0471 32.0825 32.0469C32.495 32.0407 32.8885 31.8725 33.178 31.5786C33.4675 31.2847 33.6298 30.8887 33.6298 30.4762V12.5187C33.6298 12.3632 33.568 12.2142 33.4581 12.1042C33.3482 11.9943 33.1991 11.9326 33.0437 11.9326Z" fill="#232323"/>
<path d="M16.3284 44.929H4.37234C4.18892 44.929 4.01302 45.0018 3.88332 45.1315C3.75363 45.2612 3.68077 45.4371 3.68077 45.6205C3.67918 45.7118 3.69598 45.8024 3.73018 45.8871C3.76437 45.9717 3.81525 46.0485 3.87979 46.1131C3.94433 46.1776 4.0212 46.2285 4.10582 46.2627C4.19044 46.2969 4.28109 46.3137 4.37234 46.3121H16.3284C16.5118 46.3121 16.6877 46.2392 16.8174 46.1095C16.9471 45.9799 17.02 45.8039 17.02 45.6205C17.02 45.4371 16.9471 45.2612 16.8174 45.1315C16.6877 45.0018 16.5118 44.929 16.3284 44.929Z" fill="#232323"/>
<path d="M16.3285 49.2308H4.37246C4.20305 49.2528 4.04744 49.3357 3.93469 49.4641C3.82195 49.5924 3.75977 49.7574 3.75977 49.9282C3.75977 50.0991 3.82195 50.2641 3.93469 50.3924C4.04744 50.5207 4.20305 50.6037 4.37246 50.6257H16.3285C16.4277 50.6385 16.5285 50.6301 16.6241 50.601C16.7198 50.5718 16.8081 50.5226 16.8833 50.4566C16.9584 50.3906 17.0186 50.3093 17.0598 50.2182C17.1011 50.1271 17.1224 50.0282 17.1224 49.9282C17.1224 49.8282 17.1011 49.7294 17.0598 49.6382C17.0186 49.5471 16.9584 49.4659 16.8833 49.3999C16.8081 49.3339 16.7198 49.2846 16.6241 49.2555C16.5285 49.2263 16.4277 49.2179 16.3285 49.2308Z" fill="#232323"/>
<path d="M6.29436 12.5187H3.95004C3.05782 12.5187 2.20215 12.8731 1.57126 13.504C0.940369 14.1349 0.585938 14.9906 0.585938 15.8828V55.7363H2.93026V15.8828C2.93026 14.9906 3.28469 14.1349 3.91558 13.504C4.54647 12.8731 5.40215 12.5187 6.29436 12.5187Z" fill="#E0E0E0"/>
<path d="M12.0498 71.4081C16.4454 71.4081 20.0088 67.8447 20.0088 63.4491C20.0088 59.0535 16.4454 55.4901 12.0498 55.4901C7.65417 55.4901 4.09082 59.0535 4.09082 63.4491C4.09082 67.8447 7.65417 71.4081 12.0498 71.4081Z" fill="white"/>
<path d="M12.0499 55.7832C13.5689 55.7832 15.0537 56.2337 16.3166 57.0779C17.5794 57.922 18.5634 59.1218 19.1442 60.5254C19.725 61.929 19.8763 63.4733 19.5791 64.963C19.2819 66.4526 18.5495 67.8206 17.4746 68.8939C16.3997 69.9671 15.0306 70.6975 13.5405 70.9924C12.0504 71.2873 10.5063 71.1336 9.10362 70.5507C7.70091 69.9678 6.50264 68.9819 5.66042 67.7178C4.8182 66.4536 4.36988 64.9681 4.3722 63.4491C4.3722 62.4414 4.57087 61.4436 4.95686 60.5128C5.34284 59.5819 5.90856 58.7363 6.62165 58.0243C7.33474 57.3123 8.18121 56.7479 9.11263 56.3633C10.0441 55.9788 11.0422 55.7816 12.0499 55.7832ZM12.0499 55.1971C10.427 55.1971 8.84066 55.6783 7.49133 56.5799C6.14201 57.4815 5.09034 58.763 4.46931 60.2622C3.84828 61.7615 3.68579 63.4113 4.00239 65.0029C4.31899 66.5946 5.10045 68.0566 6.24796 69.2041C7.39546 70.3516 8.85748 71.1331 10.4491 71.4497C12.0408 71.7663 13.6905 71.6038 15.1898 70.9828C16.6891 70.3617 17.9706 69.3101 18.8722 67.9607C19.7738 66.6114 20.255 65.025 20.255 63.4022C20.2396 61.2308 19.3702 59.1527 17.8348 57.6173C16.2994 56.0818 14.2213 55.2124 12.0499 55.1971Z" fill="#232323"/>
<path d="M12.0497 66.8952C11.3681 66.8952 10.7018 66.6931 10.1351 66.3144C9.56837 65.9358 9.12667 65.3976 8.86584 64.7679C8.60501 64.1382 8.53676 63.4453 8.66973 62.7768C8.8027 62.1083 9.13092 61.4942 9.61287 61.0123C10.0948 60.5303 10.7089 60.2021 11.3774 60.0691C12.0458 59.9362 12.7388 60.0044 13.3685 60.2652C13.9982 60.5261 14.5364 60.9678 14.915 61.5345C15.2937 62.1012 15.4958 62.7675 15.4958 63.4491C15.4927 64.3621 15.1287 65.2368 14.4831 65.8825C13.8374 66.5281 12.9627 66.8921 12.0497 66.8952Z" fill="#CCCCCC"/>
<path d="M12.0497 60.296C12.6729 60.2983 13.2813 60.4852 13.7983 60.833C14.3153 61.1809 14.7176 61.6742 14.9545 62.2505C15.1913 62.8269 15.2521 63.4605 15.1291 64.0714C15.0061 64.6822 14.7049 65.243 14.2635 65.6828C13.822 66.1226 13.2602 66.4217 12.6489 66.5424C12.0375 66.6631 11.4042 66.6 10.8287 66.361C10.2532 66.122 9.76145 65.7179 9.4155 65.1996C9.06955 64.6813 8.88491 64.0722 8.88491 63.4491C8.88801 62.6117 9.22281 61.8098 9.816 61.2188C10.4092 60.6278 11.2124 60.2959 12.0497 60.296ZM12.0497 59.7099C11.3102 59.7099 10.5873 59.9292 9.97236 60.34C9.35745 60.7509 8.87819 61.3349 8.59518 62.0181C8.31217 62.7014 8.23812 63.4532 8.3824 64.1785C8.52667 64.9039 8.8828 65.5701 9.40573 66.0931C9.92867 66.616 10.5949 66.9721 11.3203 67.1164C12.0456 67.2607 12.7974 67.1866 13.4807 66.9036C14.1639 66.6206 14.7479 66.1414 15.1588 65.5265C15.5696 64.9115 15.7889 64.1886 15.7889 63.4491C15.7858 62.4583 15.3909 61.509 14.6903 60.8085C13.9898 60.1079 13.0405 59.713 12.0497 59.7099Z" fill="#232323"/>
<path d="M21.0992 30.4762V12.5187H18.7549V30.4762C18.7569 30.645 18.8018 30.8105 18.8854 30.9572C18.9689 31.1038 19.0883 31.2269 19.2324 31.3148C19.3766 31.4027 19.5407 31.4525 19.7093 31.4596C19.878 31.4667 20.0457 31.4308 20.1966 31.3553L21.1813 30.8396C21.1279 30.7258 21.0999 30.6018 21.0992 30.4762Z" fill="#FFD801"/>
<path d="M60.108 47.8711V37.8022C60.108 37.4664 60.2414 37.1444 60.4788 36.907C60.7162 36.6696 61.0382 36.5363 61.3739 36.5363H59.0296C58.6939 36.5363 58.3719 36.6696 58.1345 36.907C57.897 37.1444 57.7637 37.4664 57.7637 37.8022V47.8711C57.7668 48.2079 57.9027 48.5299 58.142 48.7669C58.3813 49.004 58.7045 49.137 59.0413 49.137H61.3856C61.0488 49.137 60.7256 49.004 60.4863 48.7669C60.2471 48.5299 60.1111 48.2079 60.108 47.8711Z" fill="#E0E0E0"/>
</g>
<defs>
<clipPath id="clip0_1802_5583">
<rect width="77.093" height="80" fill="white"/>
</clipPath>
</defs>
</svg>
