<svg width="88" height="80" viewBox="0 0 88 80" fill="none" xmlns="http://www.w3.org/2000/svg">
<path d="M86.517 40.1577C89.2422 47.0993 83.2899 57.11 75.516 64.8404C67.7421 72.5708 58.0892 78.0638 48.5512 79.5554C39.0131 81.0469 29.561 78.6088 20.1807 74.5787C10.8004 70.5486 1.43445 65.242 0.17227 57.4686C-1.08991 49.6952 5.47917 39.5984 10.9152 30.2187C16.3512 20.839 20.611 12.3915 27.7682 6.65468C34.9253 0.917852 44.9798 -1.95056 51.0325 1.57759C57.0852 5.10573 59.0072 15.3746 65.691 22.3879C72.3749 29.4012 83.7919 33.2735 86.517 40.1577Z" fill="#EFEFEF"/>
<path d="M16.1788 74.5786C15.1099 74.5786 14.0848 74.154 13.3289 73.3983C12.5731 72.6425 12.1485 71.6174 12.1485 70.5485V28.2825C12.1461 27.6757 12.2817 27.0763 12.5451 26.5297C12.8085 25.983 13.1927 25.5035 13.6688 25.1272L32.8741 9.85293C34.0984 8.88267 35.6148 8.35469 37.177 8.35469C38.7392 8.35469 40.2555 8.88267 41.4799 9.85293L42.3405 10.5413C42.3865 10.5791 42.4224 10.6277 42.4449 10.6828C42.4674 10.7379 42.4759 10.7977 42.4695 10.8569C42.468 10.9136 42.4512 10.9688 42.4209 11.0168C42.3906 11.0647 42.348 11.1036 42.2974 11.1294C40.8328 11.9527 39.4497 12.9131 38.1666 13.9978C37.9085 14.2129 37.6646 14.4424 37.4352 14.6719C37.4033 14.7089 37.3636 14.7384 37.319 14.7583C37.2743 14.7781 37.2258 14.7878 37.177 14.7866C36.1589 14.8476 35.2026 15.295 34.5034 16.0374C33.8041 16.7797 33.4148 17.7611 33.4148 18.7809C33.4148 19.8007 33.8041 20.782 34.5034 21.5243C35.2026 22.2667 36.1589 22.7141 37.177 22.7751C37.6972 22.7744 38.2127 22.6772 38.6973 22.4883C39.6363 22.1011 40.3944 21.3738 40.8201 20.4517C41.0526 19.9277 41.1747 19.3613 41.1787 18.788C41.1756 18.2504 41.0635 17.7189 40.849 17.2259C40.6345 16.7328 40.3221 16.2884 39.9308 15.9196C39.8941 15.8844 39.865 15.8421 39.8453 15.7952C39.8256 15.7484 39.8156 15.698 39.8161 15.6471C39.8256 15.548 39.8716 15.456 39.9452 15.389C41.3351 14.297 42.8236 13.3367 44.3915 12.5206H44.5636C44.6478 12.5214 44.7291 12.5519 44.7931 12.6066L60.6708 25.1272C61.1445 25.5056 61.5271 25.9856 61.7903 26.5317C62.0534 27.0779 62.1904 27.6762 62.1912 28.2825V70.6059C62.1761 71.6648 61.7448 72.6752 60.9906 73.4186C60.2364 74.162 59.2198 74.5788 58.1608 74.5786H16.1788Z" fill="white"/>
<path d="M37.1628 8.71988C38.644 8.72185 40.0805 9.22762 41.2362 10.1541L42.0968 10.8425C40.6175 11.6638 39.2199 12.6243 37.923 13.7109C37.6504 13.9404 37.4066 14.1699 37.1628 14.4137C36.0083 14.4137 34.901 14.8723 34.0847 15.6886C33.2683 16.5049 32.8097 17.6121 32.8097 18.7665C32.8097 19.9209 33.2683 21.0281 34.0847 21.8444C34.901 22.6607 36.0083 23.1193 37.1628 23.1193C37.7276 23.1199 38.2874 23.0128 38.8122 22.8038C39.8396 22.3878 40.6668 21.5915 41.1214 20.5808C41.4097 20.0203 41.5712 19.4034 41.5948 18.7737C41.5895 18.1746 41.4593 17.5832 41.2123 17.0374C40.9653 16.4916 40.607 16.0034 40.1605 15.6041C41.5332 14.5165 43.0023 13.5564 44.5494 12.7357L55.9377 21.7712L59.2223 24.3814L60.4414 25.3423C60.8804 25.6822 61.2372 26.1165 61.4855 26.6131C61.7338 27.1096 61.8672 27.6557 61.8757 28.2107V70.6059C61.8757 71.5796 61.4889 72.5135 60.8003 73.202C60.1117 73.8906 59.1778 74.2774 58.2039 74.2774H16.179C15.2052 74.2774 14.2712 73.8906 13.5826 73.202C12.894 72.5135 12.5072 71.5796 12.5072 70.6059V28.2824C12.5158 27.7274 12.6491 27.1813 12.8974 26.6848C13.1457 26.1883 13.5025 25.7539 13.9415 25.414L33.0894 10.1397C34.2462 9.2153 35.6819 8.70978 37.1628 8.70554V8.71988ZM37.1628 7.98843C35.5219 7.98954 33.9296 8.54554 32.6447 9.56606L13.4395 24.8404C12.9239 25.2536 12.5079 25.7775 12.2224 26.3734C11.9368 26.9692 11.7891 27.6217 11.79 28.2824V70.6059C11.7938 71.7686 12.2574 72.8827 13.0797 73.7049C13.902 74.5272 15.0161 74.9907 16.179 74.9945H58.1609C59.3238 74.9907 60.4379 74.5272 61.2602 73.7049C62.0825 72.8827 62.5461 71.7686 62.5499 70.6059V28.2824C62.5566 27.6193 62.4099 26.9636 62.1213 26.3665C61.8327 25.7694 61.4099 25.2471 60.8861 24.8404L59.6669 23.8794L56.325 21.2118L44.9941 12.205C44.8673 12.1047 44.711 12.0493 44.5494 12.0472C44.4338 12.0465 44.3201 12.0762 44.2195 12.1333C42.63 12.9432 41.1219 13.9038 39.7158 15.0017C39.6353 15.0625 39.5692 15.1403 39.5221 15.2295C39.475 15.3188 39.4481 15.4172 39.4433 15.518C39.4395 15.6222 39.458 15.726 39.4976 15.8225C39.5371 15.919 39.5969 16.0059 39.6728 16.0774C40.1133 16.4951 40.4419 17.0167 40.6285 17.5944C40.8152 18.1721 40.8539 18.7873 40.7412 19.3838C40.6284 19.9803 40.3678 20.539 39.9832 21.0087C39.5986 21.4784 39.1023 21.8441 38.5397 22.0723C38.0869 22.2655 37.5976 22.3585 37.1054 22.3448C36.1806 22.2867 35.3126 21.8784 34.6783 21.2029C34.0439 20.5275 33.6908 19.6357 33.6908 18.7091C33.6908 17.7825 34.0439 16.8907 34.6783 16.2153C35.3126 15.5399 36.1806 15.1315 37.1054 15.0734C37.2017 15.0757 37.2975 15.0577 37.3864 15.0206C37.4754 14.9836 37.5555 14.9283 37.6218 14.8583C37.8369 14.6288 38.0807 14.4137 38.3389 14.1842C39.6233 13.154 41.0015 12.2464 42.4553 11.4736C42.5577 11.4148 42.644 11.3317 42.7065 11.2317C42.7691 11.1316 42.806 11.0176 42.8139 10.8999C42.8214 10.7848 42.8004 10.6697 42.7529 10.5646C42.7054 10.4596 42.6328 10.3679 42.5414 10.2975L41.6952 9.60909C40.4037 8.59049 38.8076 8.03494 37.1628 8.03146V7.98843Z" fill="#414141"/>
<path d="M28.2132 48.8633C27.2297 48.8803 26.2533 48.6947 25.3446 48.3183C24.5169 47.9901 23.7616 47.5028 23.1214 46.8841C22.5036 46.2597 22.016 45.5186 21.6871 44.7041C21.33 43.8604 21.1494 42.9526 21.1564 42.0365C21.1496 41.1343 21.3303 40.2405 21.6871 39.4119C22.3976 37.7494 23.7312 36.4313 25.402 35.7403C26.3107 35.3639 27.2871 35.1783 28.2706 35.1953C29.2534 35.1851 30.2285 35.3703 31.1392 35.7403C32.8125 36.4201 34.1482 37.7351 34.854 39.3975C35.2141 40.2307 35.3996 41.1288 35.399 42.0365C35.3979 42.9379 35.2187 43.8302 34.8717 44.6621C34.5246 45.494 34.0165 46.2491 33.3767 46.8841C32.7288 47.5001 31.9694 47.9869 31.1392 48.3183C30.2285 48.6883 29.2534 48.8735 28.2706 48.8633H28.2132ZM28.2132 38.58C27.3442 38.5772 26.5092 38.9174 25.8896 39.5266C25.2797 40.212 24.9428 41.0975 24.9428 42.015C24.9428 42.9324 25.2797 43.8179 25.8896 44.5033C26.5111 45.1095 27.345 45.4488 28.2132 45.4488C29.0814 45.4488 29.9153 45.1095 30.5368 44.5033C31.1467 43.8179 31.4836 42.9324 31.4836 42.015C31.4836 41.0975 31.1467 40.212 30.5368 39.5266C29.9171 38.9174 29.0822 38.5772 28.2132 38.58Z" fill="#FFD801"/>
<path d="M28.213 35.5252C29.1373 35.515 30.0543 35.6905 30.9095 36.0416C32.4844 36.7024 33.7433 37.9458 34.4235 39.5123C34.7575 40.3068 34.9282 41.1604 34.9255 42.0222C34.9335 42.8845 34.7625 43.7391 34.4235 44.532C34.0942 45.3127 33.6057 46.016 32.9892 46.5973C32.3747 47.2071 31.6493 47.6939 30.8521 48.0315C29.9958 48.3785 29.0796 48.5539 28.1556 48.5478C27.2408 48.5554 26.3337 48.3799 25.4878 48.0315C24.693 47.6974 23.9717 47.21 23.3651 46.5973C22.7542 46.0113 22.2665 45.3091 21.9308 44.532C21.6277 43.7311 21.4863 42.8781 21.5148 42.0222C21.5109 41.1649 21.6817 40.3158 22.0168 39.5267C22.6975 37.9521 23.9623 36.7028 25.5452 36.0416C26.3903 35.6905 27.2979 35.5149 28.213 35.5252ZM28.213 45.8085C28.6895 45.8164 29.1626 45.7277 29.6039 45.5477C30.0451 45.3678 30.4453 45.1004 30.7804 44.7615C31.4627 44.0095 31.8407 43.0304 31.8407 42.015C31.8407 40.9996 31.4627 40.0205 30.7804 39.2685C30.0943 38.5975 29.1727 38.2218 28.213 38.2218C27.2533 38.2218 26.3317 38.5975 25.6456 39.2685C24.9633 40.0205 24.5853 40.9996 24.5853 42.015C24.5853 43.0304 24.9633 44.0095 25.6456 44.7615C25.9807 45.1004 26.3809 45.3678 26.8222 45.5477C27.2634 45.7277 27.7365 45.8164 28.213 45.8085ZM28.213 34.8081C26.2469 34.7928 24.3546 35.5559 22.9491 36.9308C22.289 37.5966 21.7588 38.3797 21.3857 39.2398C21.0096 40.1189 20.8192 41.0661 20.8264 42.0222C20.8237 42.9825 21.0139 43.9335 21.3857 44.8189C21.7556 45.6766 22.2863 46.4555 22.9491 47.1136C23.6243 47.7685 24.4176 48.2893 25.287 48.6482C27.1875 49.4132 29.3102 49.4132 31.2107 48.6482C32.0923 48.2964 32.8964 47.775 33.5773 47.1136C34.2404 46.4587 34.7669 45.6788 35.1263 44.8189C35.5097 43.9366 35.7051 42.9841 35.7 42.0222C35.7095 41.0644 35.5139 40.1157 35.1263 39.2398C34.5437 37.9046 33.5793 36.7714 32.3543 35.9829C31.1293 35.1943 29.6984 34.7856 28.2417 34.8081H28.213ZM28.213 45.0914C27.829 45.1005 27.4472 45.0301 27.0917 44.8845C26.7363 44.7388 26.4148 44.5212 26.1476 44.2452C25.8558 43.9568 25.6292 43.609 25.4832 43.2255C25.3372 42.842 25.2752 42.4317 25.3014 42.0222C25.283 41.6113 25.3485 41.201 25.494 40.8164C25.6395 40.4317 25.8619 40.0807 26.1476 39.7848C26.6979 39.2418 27.4399 38.9373 28.213 38.9373C28.9861 38.9373 29.7281 39.2418 30.2784 39.7848C30.8248 40.3992 31.1267 41.1928 31.1267 42.015C31.1267 42.8372 30.8248 43.6308 30.2784 44.2452C30.0112 44.5212 29.6897 44.7388 29.3343 44.8845C28.9788 45.0301 28.597 45.1005 28.213 45.0914Z" fill="#414141"/>
<path d="M28.9151 63.8365C28.6172 63.8382 28.3245 63.7586 28.0686 63.6061C27.8127 63.4536 27.6034 63.2341 27.4631 62.9714C27.3228 62.7086 27.257 62.4125 27.2728 62.115C27.2886 61.8176 27.3853 61.5301 27.5525 61.2836L44.0326 36.6727C44.1902 36.4393 44.4045 36.2498 44.6554 36.1219C44.9062 35.994 45.1855 35.9318 45.4669 35.9412C45.7949 35.9418 46.1149 36.0418 46.3849 36.228C46.7448 36.4726 46.9936 36.8495 47.0769 37.2767C47.1601 37.7038 47.0712 38.1466 46.8295 38.5084L30.292 63.1051C30.1327 63.3357 29.9177 63.5224 29.667 63.6478C29.4162 63.7732 29.1379 63.8331 28.8577 63.8222L28.9151 63.8365Z" fill="#FFD801"/>
<path d="M45.4103 36.2997C45.6655 36.2981 45.9153 36.373 46.1275 36.5148C46.2678 36.6099 46.388 36.7317 46.4812 36.8733C46.5745 37.0149 46.6389 37.1734 46.6709 37.3399C46.7029 37.5064 46.7017 37.6775 46.6675 37.8436C46.6334 38.0096 46.5668 38.1673 46.4717 38.3076L29.9916 62.9186C29.8718 63.0927 29.7111 63.2348 29.5235 63.3324C29.3359 63.4299 29.1273 63.4799 28.9159 63.4779C28.6654 63.4775 28.4208 63.4026 28.2131 63.2628C27.9314 63.0731 27.7357 62.7801 27.6686 62.4472C27.6015 62.1143 27.6683 61.7683 27.8545 61.4843L44.3346 36.8734C44.4536 36.6974 44.6139 36.5532 44.8013 36.4532C44.9888 36.3532 45.1978 36.3005 45.4103 36.2997ZM45.4103 35.5826C45.0809 35.5806 44.7562 35.661 44.4656 35.8162C44.1751 35.9715 43.9279 36.1968 43.7465 36.4718L27.2521 61.0828C26.9562 61.5243 26.8474 62.065 26.9496 62.5866C27.0517 63.1081 27.3565 63.5679 27.7971 63.8651C28.124 64.083 28.5087 64.1979 28.9015 64.195C29.2309 64.1946 29.5554 64.115 29.8475 63.9627C30.1396 63.8104 30.3908 63.59 30.5797 63.3201L47.0741 38.7235C47.37 38.282 47.4788 37.7412 47.3766 37.2197C47.2744 36.6981 46.9697 36.2384 46.5291 35.9411C46.2002 35.7146 45.8097 35.5944 45.4103 35.5969V35.5826Z" fill="#414141"/>
<path d="M46.0839 64.6252C45.1004 64.6422 44.124 64.4567 43.2153 64.0802C42.385 63.7488 41.6256 63.262 40.9778 62.646C40.0229 61.6812 39.3766 60.4542 39.1212 59.121C38.8658 57.7878 39.0128 56.4088 39.5435 55.1595C39.8842 54.3512 40.3704 53.6123 40.9778 52.9795C41.6173 52.3599 42.3728 51.8725 43.2009 51.5453C44.1096 51.1688 45.0861 50.9833 46.0695 51.0003C47.0527 50.9869 48.0284 51.1723 48.9381 51.5453C49.7767 51.8688 50.5422 52.3564 51.19 52.9795C51.7995 53.6107 52.2859 54.35 52.6243 55.1595C52.9844 55.9926 53.1699 56.8908 53.1693 57.7984C53.1682 58.6998 52.989 59.5921 52.6419 60.424C52.2949 61.2559 51.7868 62.0111 51.1469 62.646C50.4962 63.2653 49.7314 63.7523 48.8951 64.0802C47.9854 64.4532 47.0096 64.6386 46.0265 64.6252H46.0839ZM46.0839 54.342C45.2149 54.3392 44.3799 54.6793 43.7603 55.2885C43.1504 55.9739 42.8134 56.8594 42.8134 57.7769C42.8134 58.6943 43.1504 59.5798 43.7603 60.2652C44.0623 60.5735 44.4243 60.8166 44.824 60.9794C45.2236 61.1422 45.6524 61.2213 46.0839 61.2118C46.5152 61.2173 46.9431 61.1335 47.3405 60.9657C47.7379 60.7979 48.0963 60.5496 48.3931 60.2366C49.0119 59.5555 49.3548 58.6684 49.3548 57.7482C49.3548 56.828 49.0119 55.9409 48.3931 55.2599C48.0875 54.9625 47.7262 54.7284 47.3299 54.5709C46.9337 54.4134 46.5102 54.3356 46.0839 54.342Z" fill="#FFD801"/>
<path d="M46.0836 51.2872C47.0077 51.2796 47.9241 51.4551 48.7801 51.8035C50.3655 52.4536 51.6324 53.6998 52.3084 55.2743C52.6524 56.0611 52.8283 56.9111 52.8248 57.7698C52.8241 58.6239 52.6538 59.4693 52.3239 60.2572C51.994 61.045 51.5109 61.7595 50.9028 62.3592C50.2962 62.972 49.5749 63.4593 48.7801 63.7934C47.9229 64.1376 47.0073 64.3129 46.0836 64.3098C45.1688 64.3174 44.2617 64.1418 43.4158 63.7934C42.6203 63.4657 41.8983 62.9822 41.2924 62.3713C40.6864 61.7605 40.2087 61.0347 39.8874 60.2366C39.5534 59.4371 39.3827 58.5789 39.3854 57.7124C39.3842 56.8554 39.5549 56.0068 39.8874 55.2169C40.2338 54.4458 40.7201 53.7455 41.3217 53.1516C41.9238 52.5335 42.6463 52.0454 43.4445 51.7174C44.2891 51.3649 45.1971 51.1892 46.1123 51.2011L46.0836 51.2872ZM46.1123 61.4844C46.5885 61.4906 47.0612 61.4012 47.5022 61.2213C47.9432 61.0415 48.3436 60.7749 48.6797 60.4374C49.0356 60.0785 49.3136 59.6499 49.4963 59.1785C49.6789 58.7071 49.7622 58.2031 49.741 57.6981C49.7597 57.1933 49.6752 56.69 49.4927 56.219C49.3102 55.748 49.0335 55.3192 48.6797 54.9587C47.9911 54.2868 47.0672 53.9107 46.1051 53.9107C45.143 53.9107 44.2191 54.2868 43.5305 54.9587C43.1819 55.3223 42.9097 55.752 42.7299 56.2225C42.55 56.693 42.4663 57.1947 42.4835 57.6981C42.463 58.2018 42.5452 58.7045 42.7252 59.1754C42.9052 59.6464 43.1792 60.0758 43.5305 60.4374C43.8655 60.7813 44.2674 61.0529 44.7115 61.2354C45.1555 61.4179 45.6323 61.5075 46.1123 61.4987V61.4844ZM46.1123 50.4984C45.0984 50.4848 44.0927 50.6801 43.1576 51.072C42.284 51.4295 41.4895 51.9558 40.8197 52.621C40.1631 53.2843 39.6333 54.0619 39.2563 54.9157C38.8831 55.8199 38.7024 56.7919 38.7256 57.7698C38.7132 58.7542 38.9036 59.7306 39.285 60.6382C39.6548 61.4959 40.1855 62.2748 40.8484 62.9329C41.5235 63.5878 42.3169 64.1086 43.1863 64.4675C44.123 64.8541 45.1276 65.0492 46.1409 65.0412C47.1587 65.0465 48.1675 64.8516 49.1099 64.4675C49.9875 64.116 50.7869 63.5945 51.4622 62.9329C52.1296 62.2786 52.6609 61.4987 53.0256 60.6382C53.4119 59.7316 53.6072 58.7552 53.5993 57.7698C53.5987 56.813 53.4035 55.8664 53.0256 54.9874C52.6539 54.1307 52.1234 53.3521 51.4622 52.6927C50.7912 52.0223 49.9909 51.4954 49.1099 51.1438C48.1695 50.753 47.1593 50.5578 46.1409 50.5701L46.1123 50.4984ZM46.1123 60.7816C45.7279 60.7934 45.3453 60.7242 44.9895 60.5784C44.6336 60.4326 44.3125 60.2135 44.0469 59.9354C43.5005 59.321 43.1986 58.5274 43.1986 57.7052C43.1986 56.883 43.5005 56.0894 44.0469 55.4751C44.5971 54.932 45.3391 54.6275 46.1123 54.6275C46.8854 54.6275 47.6274 54.932 48.1777 55.4751C48.7241 56.0894 49.0259 56.883 49.0259 57.7052C49.0259 58.5274 48.7241 59.321 48.1777 59.9354C47.9104 60.2114 47.589 60.429 47.2335 60.5747C46.8781 60.7203 46.4963 60.7908 46.1123 60.7816Z" fill="#414141"/>
<path d="M52.2803 24.3815C50.301 24.3815 48.4221 24.2955 46.6866 24.1234C44.0407 23.95 41.4353 23.3845 38.9557 22.4453C36.919 21.5705 35.7572 20.4375 35.4847 19.0606C35.4699 18.8553 35.4699 18.6492 35.4847 18.4439C35.596 17.0342 36.2427 15.7205 37.2919 14.7723C38.1256 14.8 38.929 15.0912 39.5868 15.6042C38.1525 16.8089 37.4927 17.9276 37.6218 18.659C37.7509 19.3905 38.5398 19.9355 39.845 20.4805C40.1892 20.6239 40.5765 20.7673 41.0211 20.9107C42.9378 21.4524 44.9023 21.8078 46.8874 21.9721C48.5798 22.1298 50.3871 22.2159 52.2947 22.2159C53.4708 22.2159 54.6756 22.2159 55.8948 22.1155C59.222 21.9483 62.5336 21.5505 65.8058 20.9251C69.1773 20.299 72.4648 19.2834 75.602 17.8989C80.1487 15.7333 82.1568 13.123 81.5687 10.1255C81.3491 9.10953 80.8458 8.1767 80.1171 7.43539C79.3884 6.69408 78.4644 6.17472 77.4523 5.93763C75.495 5.32461 73.4499 5.03871 71.3995 5.09145C66.7294 5.21192 62.0953 5.94485 57.6159 7.27145C53.1163 8.51126 48.7567 10.2127 44.6068 12.3485L42.7566 10.9143C49.8133 6.91289 61.9188 2.86843 71.3852 2.86843C73.6736 2.81391 75.9555 3.13365 78.1407 3.81501C79.5195 4.18188 80.7701 4.92244 81.7547 5.955C82.7392 6.98756 83.4194 8.27197 83.7201 9.66657C84.9106 15.7619 78.528 20.6382 66.2217 23.0334C63.9985 23.4636 61.632 23.7935 59.1936 24.023C56.7553 24.2524 54.5035 24.3815 52.2803 24.3815Z" fill="white"/>
<path d="M71.3853 3.28426C73.6353 3.22464 75.8796 3.53968 78.0262 4.21649C79.3425 4.56132 80.5377 5.2637 81.4794 6.24586C82.4211 7.22802 83.0726 8.45163 83.3617 9.78121C84.5092 15.6615 78.2413 20.3943 66.1502 22.6891C63.9413 23.1193 61.5891 23.4492 59.1651 23.6787C56.7412 23.9081 54.5037 24.0085 52.2805 24.0085C50.3155 24.0085 48.4366 23.9225 46.7154 23.7504C44.1095 23.5778 41.5432 23.022 39.0993 22.101C37.1773 21.2835 36.0873 20.2366 35.8434 18.9745C35.8215 18.7935 35.8215 18.6105 35.8434 18.4295C35.958 17.1469 36.5583 15.9566 37.5216 15.1021C38.0749 15.1442 38.6105 15.3162 39.0849 15.6041C37.8084 16.7945 37.1773 17.8845 37.3351 18.702C37.4929 19.5195 38.3248 20.1362 39.7591 20.7816C40.1033 20.925 40.5049 21.0684 40.9782 21.2262C42.9165 21.7826 44.9059 22.1429 46.9162 22.3018C48.6087 22.4596 50.4302 22.5456 52.3522 22.5456C53.5283 22.5456 54.7475 22.5456 55.9666 22.4452C59.3369 22.2821 62.6917 21.8844 66.0067 21.2549C69.4097 20.6224 72.7266 19.5923 75.889 18.1857C80.5935 15.9626 82.6733 13.209 82.0565 10.025C81.822 8.95481 81.2959 7.97035 80.5365 7.1806C79.777 6.39084 78.8139 5.8266 77.7536 5.5503C75.7573 4.93458 73.6748 4.64402 71.5862 4.68978C66.817 4.80307 62.0847 5.55557 57.5157 6.92714C53.0532 8.14424 48.7275 9.81671 44.607 11.9182L43.3592 10.9286C50.4446 7.0849 62.1628 3.28426 71.3567 3.28426H71.3853ZM71.3567 2.56715C62.1772 2.56715 50.0717 6.33911 42.5129 10.57L42.0683 10.8282L44.5496 12.7644C48.7387 10.5863 53.1477 8.86034 57.7021 7.61556C62.1476 6.2929 66.7487 5.56469 71.3853 5.44991C73.3911 5.40045 75.3916 5.67654 77.309 6.2674C78.2669 6.48941 79.1426 6.97737 79.8353 7.67513C80.528 8.37289 81.0096 9.25207 81.2246 10.2115C82.5012 16.8088 69.7503 19.8207 65.7342 20.5951C62.4801 21.2097 59.188 21.6026 55.8806 21.7712C54.6614 21.7712 53.471 21.8716 52.2948 21.8716C50.4159 21.8716 48.6087 21.7855 46.9306 21.6278C44.9887 21.4662 43.0671 21.1156 41.1934 20.5808C40.7631 20.4374 40.3902 20.3083 40.0603 20.1649C38.626 19.5912 38.124 18.9888 38.0523 18.6016C37.9805 18.2143 38.3965 17.1674 39.9025 15.8909L40.2324 15.6041C39.4253 14.8336 38.3505 14.4068 37.2347 14.4137C36.6362 14.9196 36.1432 15.5384 35.7839 16.2348C35.4246 16.9312 35.206 17.6916 35.1406 18.4725C35.1432 18.7037 35.1672 18.9341 35.2123 19.1609C35.4782 20.0229 35.9522 20.8062 36.5926 21.4415C37.233 22.0769 38.02 22.5447 38.8841 22.8038C41.4025 23.7509 44.0455 24.3259 46.7298 24.5105C48.4939 24.6826 50.3872 24.7687 52.3522 24.7687C54.6184 24.7687 56.9706 24.6539 59.2942 24.4388C61.6178 24.2237 64.0991 23.8795 66.3653 23.4348C78.8867 21.011 85.3698 15.977 84.1363 9.65213C83.8315 8.20431 83.1355 6.86779 82.1239 5.78802C81.1124 4.70824 79.824 3.92657 78.3991 3.52807C76.1768 2.83475 73.856 2.51014 71.5288 2.56715H71.3567Z" fill="#414141"/>
<path d="M44.5487 12.7644C43.0016 13.5851 41.5325 14.5452 40.1598 15.6328C39.3527 14.8623 38.2779 14.4355 37.1621 14.4424C37.4059 14.1986 37.6498 13.9691 37.9223 13.7396C39.2192 12.653 40.6168 11.6925 42.0961 10.8712L44.5487 12.7644Z" fill="white"/>
<path d="M15.3762 70.6059V28.2825C15.3847 27.7274 15.5181 27.1813 15.7664 26.6848C16.0147 26.1883 16.3715 25.7539 16.8105 25.414L35.9583 10.1397C36.7351 9.53406 37.6364 9.10793 38.5975 8.89199C37.6444 8.67736 36.6555 8.678 35.7027 8.89385C34.7499 9.10971 33.8572 9.53534 33.0898 10.1397L13.8845 25.3997C13.4455 25.7396 13.0887 26.1739 12.8404 26.6705C12.5921 27.167 12.4588 27.713 12.4502 28.2681V70.6059C12.4502 71.5796 12.837 72.5135 13.5256 73.2021C14.2142 73.8906 15.1482 74.2774 16.122 74.2774H18.9906C18.0268 74.2624 17.1075 73.8689 16.4312 73.182C15.755 72.4951 15.376 71.5698 15.3762 70.6059Z" fill="white"/>
</svg>
