<svg width="50" height="62" viewBox="0 0 50 62" fill="none" xmlns="http://www.w3.org/2000/svg">
<path d="M5.82031 38.4713H2.85156L2.83594 37.6901H5.36719C5.8776 37.6901 6.30208 37.6354 6.64062 37.526C6.98438 37.4114 7.24219 37.2421 7.41406 37.0182C7.59115 36.7942 7.67969 36.5182 7.67969 36.1901C7.67969 35.9401 7.6276 35.7213 7.52344 35.5338C7.42448 35.3463 7.27344 35.1927 7.07031 35.0729C6.8724 34.9531 6.6224 34.8645 6.32031 34.8073C6.02344 34.7448 5.67708 34.7135 5.28125 34.7135H3.11719V42.3698H2.1875V33.9166H5.28125C5.79688 33.9166 6.25781 33.9635 6.66406 34.0573C7.07552 34.1458 7.42708 34.2812 7.71875 34.4635C8.01042 34.6458 8.23177 34.8802 8.38281 35.1666C8.53906 35.4479 8.61719 35.7812 8.61719 36.1666C8.61719 36.427 8.56771 36.6718 8.46875 36.901C8.36979 37.125 8.22396 37.3281 8.03125 37.5104C7.84375 37.6875 7.61198 37.8333 7.33594 37.9479C7.0599 38.0573 6.74219 38.125 6.38281 38.151L5.82031 38.4713ZM5.82031 42.3698H2.5625L2.92188 41.5729H5.82031C6.28906 41.5729 6.6875 41.513 7.01562 41.3932C7.34375 41.2734 7.59115 41.0963 7.75781 40.8619C7.92969 40.6276 8.01562 40.3437 8.01562 40.0104C8.01562 39.6979 7.92969 39.427 7.75781 39.1979C7.59115 38.9687 7.34375 38.7916 7.01562 38.6666C6.6875 38.5364 6.28906 38.4713 5.82031 38.4713H3.66406L3.67969 37.6901H6.45312L6.85156 37.9869C7.27865 38.0234 7.64844 38.138 7.96094 38.3307C8.27344 38.5234 8.51562 38.7682 8.6875 39.0651C8.85938 39.3567 8.94531 39.677 8.94531 40.026C8.94531 40.4114 8.8724 40.7526 8.72656 41.0494C8.58073 41.3411 8.36979 41.5859 8.09375 41.7838C7.82292 41.9765 7.49479 42.1224 7.10938 42.2213C6.72396 42.3203 6.29427 42.3698 5.82031 42.3698ZM12.0234 40.8541L16.5938 33.9166H17.5312V42.3698H16.5938V35.4323L12.0234 42.3698H11.1016V33.9166H12.0234V40.8541ZM21.5391 33.9166H22.4688L22.3281 36.9635C22.2917 37.776 22.2005 38.4817 22.0547 39.0807C21.9141 39.6744 21.7396 40.1823 21.5312 40.6041C21.3229 41.0208 21.0938 41.3724 20.8438 41.6588C20.599 41.9401 20.349 42.177 20.0938 42.3698H19.5859L19.6016 41.5729L19.8359 41.5651C19.987 41.3828 20.1432 41.177 20.3047 40.9479C20.4714 40.7135 20.6302 40.427 20.7812 40.0885C20.9323 39.75 21.0625 39.3281 21.1719 38.8229C21.2812 38.3177 21.3542 37.6979 21.3906 36.9635L21.5391 33.9166ZM21.8438 33.9166H26.5234V42.3698H25.5938V34.7916H21.8438V33.9166ZM19.2266 41.5651H27.4062V44.8541H26.4688V42.3698H20.1172V44.8541H19.2266V41.5651ZM32.4766 42.526C31.9245 42.526 31.4167 42.4244 30.9531 42.2213C30.4948 42.0182 30.0938 41.7317 29.75 41.3619C29.4115 40.9921 29.1484 40.5546 28.9609 40.0494C28.7786 39.539 28.6875 38.9817 28.6875 38.3776V38.0416C28.6875 37.3906 28.7839 36.802 28.9766 36.276C29.1693 35.75 29.4349 35.2994 29.7734 34.9244C30.112 34.5494 30.4974 34.263 30.9297 34.0651C31.3672 33.8619 31.8255 33.7604 32.3047 33.7604C32.8411 33.7604 33.3177 33.8567 33.7344 34.0494C34.151 34.2369 34.5 34.5052 34.7812 34.8541C35.0677 35.1979 35.2839 35.6067 35.4297 36.0807C35.5755 36.5494 35.6484 37.0677 35.6484 37.6354V38.2057H29.25V37.4088H34.7188V37.2994C34.7083 36.8255 34.612 36.3828 34.4297 35.9713C34.2526 35.5546 33.987 35.2161 33.6328 34.9557C33.2786 34.6953 32.8359 34.5651 32.3047 34.5651C31.9089 34.5651 31.5443 34.6484 31.2109 34.8151C30.8828 34.9817 30.599 35.2213 30.3594 35.5338C30.125 35.8411 29.9427 36.2083 29.8125 36.6354C29.6875 37.0573 29.625 37.526 29.625 38.0416V38.3776C29.625 38.8463 29.6927 39.2838 29.8281 39.6901C29.9688 40.0911 30.1667 40.4453 30.4219 40.7526C30.6823 41.0599 30.9896 41.2994 31.3438 41.4713C31.6979 41.6432 32.0885 41.7291 32.5156 41.7291C33.0156 41.7291 33.4583 41.638 33.8438 41.4557C34.2292 41.2682 34.5755 40.9739 34.8828 40.5729L35.4688 41.026C35.2865 41.2968 35.0573 41.5468 34.7812 41.776C34.5104 42.0052 34.1849 42.1875 33.8047 42.3229C33.4245 42.4583 32.9818 42.526 32.4766 42.526ZM36.9766 38.276V38.0182C36.9766 37.4036 37.0651 36.8359 37.2422 36.3151C37.4193 35.7942 37.6719 35.3437 38 34.9635C38.3333 34.5833 38.7318 34.289 39.1953 34.0807C39.6589 33.8671 40.1745 33.7604 40.7422 33.7604C41.3151 33.7604 41.8333 33.8671 42.2969 34.0807C42.7604 34.289 43.1589 34.5833 43.4922 34.9635C43.8255 35.3437 44.0807 35.7942 44.2578 36.3151C44.4349 36.8359 44.5234 37.4036 44.5234 38.0182V38.276C44.5234 38.8906 44.4349 39.4583 44.2578 39.9791C44.0807 40.4948 43.8255 40.9427 43.4922 41.3229C43.1641 41.7031 42.7682 42 42.3047 42.2135C41.8411 42.4218 41.3255 42.526 40.7578 42.526C40.1849 42.526 39.6667 42.4218 39.2031 42.2135C38.7396 42 38.3411 41.7031 38.0078 41.3229C37.6745 40.9427 37.4193 40.4948 37.2422 39.9791C37.0651 39.4583 36.9766 38.8906 36.9766 38.276ZM37.9062 38.0182V38.276C37.9062 38.7395 37.9688 39.1796 38.0938 39.5963C38.2188 40.0078 38.401 40.375 38.6406 40.6979C38.8802 41.0156 39.1771 41.2656 39.5312 41.4479C39.8854 41.6302 40.2943 41.7213 40.7578 41.7213C41.2161 41.7213 41.6198 41.6302 41.9688 41.4479C42.3229 41.2656 42.6198 41.0156 42.8594 40.6979C43.099 40.375 43.2786 40.0078 43.3984 39.5963C43.5234 39.1796 43.5859 38.7395 43.5859 38.276V38.0182C43.5859 37.5599 43.5234 37.125 43.3984 36.7135C43.2786 36.302 43.0964 35.9349 42.8516 35.6119C42.612 35.289 42.3151 35.0338 41.9609 34.8463C41.6068 34.6588 41.2005 34.5651 40.7422 34.5651C40.2839 34.5651 39.8776 34.6588 39.5234 34.8463C39.1745 35.0338 38.8776 35.289 38.6328 35.6119C38.3932 35.9349 38.2109 36.302 38.0859 36.7135C37.9661 37.125 37.9062 37.5599 37.9062 38.0182ZM49.3672 36.9479V37.7526H45.625V36.9479H49.3672ZM4.1875 54.276V54.0182C4.1875 53.4036 4.27604 52.8359 4.45312 52.3151C4.63021 51.7942 4.88281 51.3437 5.21094 50.9635C5.54427 50.5833 5.94271 50.289 6.40625 50.0807C6.86979 49.8671 7.38542 49.7604 7.95312 49.7604C8.52604 49.7604 9.04427 49.8671 9.50781 50.0807C9.97135 50.289 10.3698 50.5833 10.7031 50.9635C11.0365 51.3437 11.2917 51.7942 11.4688 52.3151C11.6458 52.8359 11.7344 53.4036 11.7344 54.0182V54.276C11.7344 54.8906 11.6458 55.4583 11.4688 55.9791C11.2917 56.4948 11.0365 56.9427 10.7031 57.3229C10.375 57.7031 9.97917 58 9.51562 58.2135C9.05208 58.4218 8.53646 58.526 7.96875 58.526C7.39583 58.526 6.8776 58.4218 6.41406 58.2135C5.95052 58 5.55208 57.7031 5.21875 57.3229C4.88542 56.9427 4.63021 56.4948 4.45312 55.9791C4.27604 55.4583 4.1875 54.8906 4.1875 54.276ZM5.11719 54.0182V54.276C5.11719 54.7395 5.17969 55.1796 5.30469 55.5963C5.42969 56.0078 5.61198 56.375 5.85156 56.6979C6.09115 57.0156 6.38802 57.2656 6.74219 57.4479C7.09635 57.6302 7.50521 57.7213 7.96875 57.7213C8.42708 57.7213 8.83073 57.6302 9.17969 57.4479C9.53385 57.2656 9.83073 57.0156 10.0703 56.6979C10.3099 56.375 10.4896 56.0078 10.6094 55.5963C10.7344 55.1796 10.7969 54.7395 10.7969 54.276V54.0182C10.7969 53.5599 10.7344 53.125 10.6094 52.7135C10.4896 52.302 10.3073 51.9349 10.0625 51.6119C9.82292 51.289 9.52604 51.0338 9.17188 50.8463C8.81771 50.6588 8.41146 50.5651 7.95312 50.5651C7.49479 50.5651 7.08854 50.6588 6.73438 50.8463C6.38542 51.0338 6.08854 51.289 5.84375 51.6119C5.60417 51.9349 5.42188 52.302 5.29688 52.7135C5.17708 53.125 5.11719 53.5599 5.11719 54.0182ZM19.1562 46.2369H19.9609C19.9609 46.6276 19.8906 46.9531 19.75 47.2135C19.6146 47.4739 19.4219 47.6849 19.1719 47.8463C18.9219 48.0078 18.6276 48.1354 18.2891 48.2291C17.9557 48.3177 17.5911 48.3932 17.1953 48.4557C16.7109 48.5286 16.2656 48.6875 15.8594 48.9323C15.4583 49.177 15.1146 49.513 14.8281 49.9401C14.5417 50.3619 14.3255 50.8854 14.1797 51.5104C14.0391 52.1302 13.9818 52.8567 14.0078 53.6901V54.4166H13.2031V53.6901C13.2031 52.7734 13.2917 51.9609 13.4688 51.2526C13.651 50.539 13.9089 49.9296 14.2422 49.4244C14.5807 48.9192 14.9818 48.5182 15.4453 48.2213C15.9141 47.9192 16.4323 47.7213 17 47.6276C17.5312 47.5442 17.9531 47.4427 18.2656 47.3229C18.5833 47.2031 18.8099 47.0546 18.9453 46.8776C19.0859 46.7005 19.1562 46.4869 19.1562 46.2369ZM17.0781 50.4713C17.6302 50.4713 18.1276 50.5651 18.5703 50.7526C19.013 50.9401 19.3906 51.2057 19.7031 51.5494C20.0208 51.888 20.263 52.289 20.4297 52.7526C20.6016 53.2109 20.6875 53.7135 20.6875 54.2604V54.5104C20.6875 55.0937 20.599 55.6302 20.4219 56.1198C20.25 56.6093 20 57.0338 19.6719 57.3932C19.349 57.7526 18.9557 58.0312 18.4922 58.2291C18.0339 58.427 17.5208 58.526 16.9531 58.526C16.3802 58.526 15.8646 58.427 15.4062 58.2291C14.9479 58.0312 14.5547 57.7526 14.2266 57.3932C13.8984 57.0338 13.6458 56.6093 13.4688 56.1198C13.2917 55.6302 13.2031 55.0937 13.2031 54.5104V54.2604C13.2031 54.1093 13.2188 53.9609 13.25 53.8151C13.2865 53.6692 13.3307 53.526 13.3828 53.3854C13.4349 53.2395 13.487 53.0963 13.5391 52.9557C13.7214 52.4817 13.9792 52.0599 14.3125 51.6901C14.6458 51.3151 15.0443 51.0182 15.5078 50.7994C15.9766 50.5807 16.5 50.4713 17.0781 50.4713ZM16.9375 51.2682C16.3281 51.2682 15.8151 51.4088 15.3984 51.6901C14.987 51.9661 14.6745 52.3333 14.4609 52.7916C14.2474 53.2448 14.1406 53.7343 14.1406 54.2604V54.5104C14.1406 54.9427 14.2005 55.3515 14.3203 55.7369C14.4401 56.1224 14.6172 56.4661 14.8516 56.7682C15.0911 57.0651 15.3854 57.2994 15.7344 57.4713C16.0833 57.6432 16.4896 57.7291 16.9531 57.7291C17.4115 57.7291 17.8151 57.6432 18.1641 57.4713C18.513 57.2994 18.8047 57.0651 19.0391 56.7682C19.2734 56.4661 19.4505 56.1224 19.5703 55.7369C19.6901 55.3515 19.75 54.9427 19.75 54.5104V54.2604C19.75 53.8645 19.6901 53.4869 19.5703 53.1276C19.4505 52.7682 19.2708 52.4505 19.0312 52.1744C18.7969 51.8932 18.5026 51.6718 18.1484 51.5104C17.7995 51.3489 17.3958 51.2682 16.9375 51.2682ZM25.4062 54.276H24.0469V53.6432H25.3281C25.849 53.6432 26.263 53.5833 26.5703 53.4635C26.8776 53.3385 27.099 53.164 27.2344 52.9401C27.3698 52.7161 27.4375 52.4531 27.4375 52.151C27.4375 51.8593 27.3646 51.5937 27.2188 51.3541C27.0781 51.1145 26.8516 50.9218 26.5391 50.776C26.2266 50.6302 25.8125 50.5573 25.2969 50.5573C24.901 50.5573 24.5365 50.6276 24.2031 50.7682C23.8698 50.9088 23.6016 51.1015 23.3984 51.3463C23.2005 51.5911 23.1016 51.875 23.1016 52.1979H22.1641C22.1641 51.6979 22.3099 51.2656 22.6016 50.901C22.8932 50.5364 23.276 50.2552 23.75 50.0573C24.2292 49.8593 24.7448 49.7604 25.2969 49.7604C25.776 49.7604 26.2057 49.8125 26.5859 49.9166C26.9661 50.0208 27.2891 50.1744 27.5547 50.3776C27.8203 50.5807 28.0234 50.8333 28.1641 51.1354C28.3047 51.4323 28.375 51.7734 28.375 52.1588C28.375 52.4505 28.3073 52.7239 28.1719 52.9791C28.0417 53.2343 27.849 53.4609 27.5938 53.6588C27.3438 53.8515 27.0339 54.0026 26.6641 54.1119C26.2995 54.2213 25.8802 54.276 25.4062 54.276ZM24.0469 53.8463H25.4062C25.9271 53.8463 26.3828 53.8958 26.7734 53.9948C27.1641 54.0885 27.4896 54.2291 27.75 54.4166C28.0104 54.6041 28.2031 54.8359 28.3281 55.1119C28.4583 55.3828 28.5234 55.6953 28.5234 56.0494C28.5234 56.4349 28.4453 56.7812 28.2891 57.0885C28.138 57.3958 27.9193 57.6562 27.6328 57.8698C27.3464 58.0833 27.0052 58.2448 26.6094 58.3541C26.2135 58.4635 25.776 58.5182 25.2969 58.5182C24.7812 58.5182 24.2708 58.427 23.7656 58.2448C23.2656 58.0625 22.8516 57.7812 22.5234 57.401C22.1953 57.0208 22.0312 56.5364 22.0312 55.9479H22.9609C22.9609 56.2708 23.0625 56.5677 23.2656 56.8385C23.4688 57.1093 23.7448 57.3255 24.0938 57.4869C24.4479 57.6484 24.849 57.7291 25.2969 57.7291C25.8021 57.7291 26.224 57.6588 26.5625 57.5182C26.901 57.3724 27.1562 57.1744 27.3281 56.9244C27.5 56.6744 27.5859 56.388 27.5859 56.0651C27.5859 55.6849 27.5026 55.3776 27.3359 55.1432C27.1745 54.9088 26.9271 54.7369 26.5938 54.6276C26.2604 54.5182 25.8385 54.4635 25.3281 54.4635H24.0469V53.8463ZM30.0781 54.276V54.0182C30.0781 53.4036 30.1667 52.8359 30.3438 52.3151C30.5208 51.7942 30.7734 51.3437 31.1016 50.9635C31.4349 50.5833 31.8333 50.289 32.2969 50.0807C32.7604 49.8671 33.276 49.7604 33.8438 49.7604C34.4167 49.7604 34.9349 49.8671 35.3984 50.0807C35.862 50.289 36.2604 50.5833 36.5938 50.9635C36.9271 51.3437 37.1823 51.7942 37.3594 52.3151C37.5365 52.8359 37.625 53.4036 37.625 54.0182V54.276C37.625 54.8906 37.5365 55.4583 37.3594 55.9791C37.1823 56.4948 36.9271 56.9427 36.5938 57.3229C36.2656 57.7031 35.8698 58 35.4062 58.2135C34.9427 58.4218 34.4271 58.526 33.8594 58.526C33.2865 58.526 32.7682 58.4218 32.3047 58.2135C31.8411 58 31.4427 57.7031 31.1094 57.3229C30.776 56.9427 30.5208 56.4948 30.3438 55.9791C30.1667 55.4583 30.0781 54.8906 30.0781 54.276ZM31.0078 54.0182V54.276C31.0078 54.7395 31.0703 55.1796 31.1953 55.5963C31.3203 56.0078 31.5026 56.375 31.7422 56.6979C31.9818 57.0156 32.2786 57.2656 32.6328 57.4479C32.987 57.6302 33.3958 57.7213 33.8594 57.7213C34.3177 57.7213 34.7214 57.6302 35.0703 57.4479C35.4245 57.2656 35.7214 57.0156 35.9609 56.6979C36.2005 56.375 36.3802 56.0078 36.5 55.5963C36.625 55.1796 36.6875 54.7395 36.6875 54.276V54.0182C36.6875 53.5599 36.625 53.125 36.5 52.7135C36.3802 52.302 36.1979 51.9349 35.9531 51.6119C35.7135 51.289 35.4167 51.0338 35.0625 50.8463C34.7083 50.6588 34.3021 50.5651 33.8438 50.5651C33.3854 50.5651 32.9792 50.6588 32.625 50.8463C32.276 51.0338 31.9792 51.289 31.7344 51.6119C31.4948 51.9349 31.3125 52.302 31.1875 52.7135C31.0677 53.125 31.0078 53.5599 31.0078 54.0182ZM40.4844 51.5416V61.6198H39.5469V49.9166H40.4219L40.4844 51.5416ZM46.3594 54.0651V54.2291C46.3594 54.8593 46.2865 55.4375 46.1406 55.9635C45.9948 56.4895 45.7839 56.9453 45.5078 57.3307C45.237 57.7109 44.901 58.0052 44.5 58.2135C44.099 58.4218 43.6432 58.526 43.1328 58.526C42.6276 58.526 42.1771 58.4479 41.7812 58.2916C41.3854 58.1354 41.0443 57.914 40.7578 57.6276C40.4766 57.3359 40.25 56.9974 40.0781 56.6119C39.9115 56.2213 39.7943 55.7942 39.7266 55.3307V53.1666C39.8047 52.6562 39.9323 52.1927 40.1094 51.776C40.2865 51.3593 40.513 51 40.7891 50.6979C41.0703 50.3958 41.4036 50.164 41.7891 50.0026C42.1745 49.8411 42.6146 49.7604 43.1094 49.7604C43.625 49.7604 44.0833 49.8619 44.4844 50.0651C44.8906 50.263 45.2318 50.552 45.5078 50.9323C45.7891 51.3073 46 51.7604 46.1406 52.2916C46.2865 52.8177 46.3594 53.4088 46.3594 54.0651ZM45.4219 54.2291V54.0651C45.4219 53.5703 45.3698 53.1119 45.2656 52.6901C45.1667 52.2682 45.013 51.901 44.8047 51.5885C44.6016 51.2708 44.3411 51.0234 44.0234 50.8463C43.7109 50.6692 43.3385 50.5807 42.9062 50.5807C42.4583 50.5807 42.0755 50.6562 41.7578 50.8073C41.4453 50.9531 41.1849 51.1484 40.9766 51.3932C40.7682 51.6328 40.6042 51.8958 40.4844 52.1823C40.3646 52.4687 40.276 52.75 40.2188 53.026V55.5182C40.3177 55.914 40.4766 56.2812 40.6953 56.6198C40.9141 56.9531 41.2057 57.2213 41.5703 57.4244C41.9401 57.6224 42.3906 57.7213 42.9219 57.7213C43.349 57.7213 43.7188 57.6328 44.0312 57.4557C44.3438 57.2786 44.6016 57.0312 44.8047 56.7135C45.013 56.3958 45.1667 56.026 45.2656 55.6041C45.3698 55.1823 45.4219 54.7239 45.4219 54.2291Z" fill="#545454"/>
<path d="M41.877 13.2294C41.877 13.1403 41.877 13.039 41.8729 12.9215C41.8689 12.5934 41.8608 12.2248 41.8527 11.8318C41.8203 10.7016 41.7636 9.57543 41.6746 8.51408C41.5532 7.05169 41.3751 5.83235 41.1322 4.91684C40.8759 3.96142 40.3736 3.09005 39.6754 2.38984C38.9772 1.68962 38.1076 1.18508 37.1535 0.926649C36.0081 0.618777 33.7658 0.428382 30.6087 0.310905C29.1071 0.254191 27.5002 0.217733 25.8934 0.197478C25.3308 0.189376 24.8086 0.185325 24.3391 0.181274H23.1492C22.6796 0.185325 22.1575 0.189376 21.5949 0.197478C19.9881 0.217733 18.3812 0.254191 16.8796 0.310905C13.7225 0.432433 11.4762 0.622828 10.3348 0.926649C9.38037 1.18445 8.51043 1.68878 7.81213 2.38909C7.11384 3.0894 6.61171 3.9611 6.35607 4.91684C6.10917 5.83235 5.93513 7.05169 5.8137 8.51408C5.72466 9.57543 5.66799 10.7016 5.63561 11.8318C5.62347 12.2248 5.61942 12.5934 5.61538 12.9215C5.61538 13.039 5.61133 13.1403 5.61133 13.2294V13.4562C5.61133 13.5454 5.61133 13.6466 5.61538 13.7641C5.61942 14.0922 5.62752 14.4609 5.63561 14.8538C5.66799 15.984 5.72466 17.1102 5.8137 18.1716C5.93513 19.6339 6.11322 20.8533 6.35607 21.7688C6.87415 23.7092 8.39601 25.2405 10.3348 25.759C11.4762 26.0669 13.7225 26.2573 16.8796 26.3747C18.3812 26.4314 19.9881 26.4679 21.5949 26.4882C22.1575 26.4963 22.6796 26.5003 23.1492 26.5044H24.3391C24.8086 26.5003 25.3308 26.4963 25.8934 26.4882C27.5002 26.4679 29.1071 26.4314 30.6087 26.3747C33.7658 26.2532 36.0121 26.0628 37.1535 25.759C39.0923 25.2405 40.6141 23.7133 41.1322 21.7688C41.3791 20.8533 41.5532 19.6339 41.6746 18.1716C41.7636 17.1102 41.8203 15.984 41.8527 14.8538C41.8648 14.4609 41.8689 14.0922 41.8729 13.7641C41.8729 13.6466 41.877 13.5454 41.877 13.4562V13.2294ZM38.9628 13.44C38.9628 13.5251 38.9628 13.6183 38.9587 13.7277C38.9547 14.0436 38.9466 14.392 38.9385 14.7688C38.9101 15.8463 38.8535 16.9239 38.7685 17.9244C38.6592 19.2289 38.5054 20.2983 38.3152 21.0153C38.0642 21.9511 37.3276 22.6924 36.3966 22.9395C35.5467 23.1664 33.4055 23.3487 30.4954 23.458C29.0221 23.5148 27.4355 23.5512 25.8529 23.5715C25.2984 23.5796 24.7843 23.5836 24.3229 23.5836H23.1653L21.6354 23.5715C20.0528 23.5512 18.4702 23.5148 16.9929 23.458C14.0828 23.3446 11.9376 23.1664 11.0916 22.9395C10.1607 22.6884 9.42408 21.9511 9.17313 21.0153C8.9829 20.2983 8.82909 19.2289 8.71981 17.9244C8.63481 16.9239 8.5822 15.8463 8.54982 14.7688C8.53767 14.392 8.53363 14.0396 8.52958 13.7277C8.52958 13.6183 8.52553 13.5211 8.52553 13.44V13.2456C8.52553 13.1605 8.52553 13.0674 8.52958 12.958C8.53363 12.642 8.54172 12.2936 8.54982 11.9169C8.57815 10.8393 8.63481 9.76178 8.71981 8.76119C8.82909 7.45678 8.9829 6.38733 9.17313 5.67031C9.42408 4.73454 10.1607 3.99322 11.0916 3.74611C11.9416 3.51926 14.0828 3.33697 16.9929 3.22759C18.4662 3.17088 20.0528 3.13442 21.6354 3.11416C22.1899 3.10606 22.7039 3.10201 23.1653 3.10201H24.3229L25.8529 3.11416C27.4355 3.13442 29.018 3.17088 30.4954 3.22759C33.4055 3.34102 35.5507 3.51926 36.3966 3.74611C37.3276 3.99727 38.0642 4.73454 38.3152 5.67031C38.5054 6.38733 38.6592 7.45678 38.7685 8.76119C38.8535 9.76178 38.9061 10.8393 38.9385 11.9169C38.9506 12.2936 38.9547 12.6461 38.9587 12.958C38.9587 13.0674 38.9628 13.1646 38.9628 13.2456V13.44ZM20.1419 18.7711L29.5321 13.3023L20.1419 7.91454V18.7711Z" fill="#7C7C7C"/>
</svg>
