<svg width="18" height="16" viewBox="0 0 18 16" fill="none" xmlns="http://www.w3.org/2000/svg">
<path fill-rule="evenodd" clip-rule="evenodd" d="M0 1.28571C0 0.944722 0.135459 0.617696 0.376577 0.376577C0.617695 0.135459 0.944722 0 1.28571 0H16.7143C17.0553 0 17.3823 0.135459 17.6234 0.376577C17.8645 0.617696 18 0.944722 18 1.28571C18 1.62671 17.8645 1.95373 17.6234 2.19485C17.3823 2.43597 17.0553 2.57143 16.7143 2.57143H1.28571C0.944722 2.57143 0.617695 2.43597 0.376577 2.19485C0.135459 1.95373 0 1.62671 0 1.28571Z" fill="#393939"/>
<path fill-rule="evenodd" clip-rule="evenodd" d="M0 7.7143C0 7.37331 0.115089 7.04628 0.319949 6.80517C0.524809 6.56405 0.802658 6.42859 1.09237 6.42859H14.2009C14.4906 6.42859 14.7684 6.56405 14.9733 6.80517C15.1781 7.04628 15.2932 7.37331 15.2932 7.7143C15.2932 8.0553 15.1781 8.38232 14.9733 8.62344C14.7684 8.86456 14.4906 9.00002 14.2009 9.00002H1.09237C0.802658 9.00002 0.524809 8.86456 0.319949 8.62344C0.115089 8.38232 0 8.0553 0 7.7143Z" fill="#393939"/>
<path fill-rule="evenodd" clip-rule="evenodd" d="M0 14.1428C0 13.8018 0.135459 13.4748 0.376577 13.2337C0.617695 12.9926 0.944722 12.8571 1.28571 12.8571H9C9.34099 12.8571 9.66802 12.9926 9.90914 13.2337C10.1503 13.4748 10.2857 13.8018 10.2857 14.1428C10.2857 14.4838 10.1503 14.8108 9.90914 15.052C9.66802 15.2931 9.34099 15.4285 9 15.4285H1.28571C0.944722 15.4285 0.617695 15.2931 0.376577 15.052C0.135459 14.8108 0 14.4838 0 14.1428Z" fill="#393939"/>
</svg>
