<svg width="18" height="18" viewBox="0 0 18 18" fill="none" xmlns="http://www.w3.org/2000/svg">
<path d="M13.2093 11.6379C14.2986 10.1514 14.7865 8.30846 14.5754 6.4777C14.3642 4.64694 13.4696 2.96341 12.0705 1.76393C10.6714 0.564443 8.87101 -0.0625395 7.02948 0.00841782C5.18796 0.0793751 3.44113 0.843039 2.13847 2.14663C0.835815 3.45022 0.073402 5.19759 0.00376251 7.03917C-0.065877 8.88075 0.562393 10.6807 1.76288 12.079C2.96336 13.4772 4.64753 14.3706 6.47844 14.5804C8.30935 14.7903 10.152 14.3011 11.6377 13.2107H11.6365C11.6703 13.2557 11.7063 13.2984 11.7468 13.34L16.078 17.6713C16.289 17.8824 16.5752 18.001 16.8736 18.0011C17.172 18.0012 17.4583 17.8828 17.6694 17.6718C17.8804 17.4609 17.9991 17.1747 17.9992 16.8763C17.9993 16.5779 17.8809 16.2916 17.6699 16.0805L13.3387 11.7493C13.2984 11.7086 13.2552 11.671 13.2093 11.6368V11.6379ZM13.4995 7.31341C13.4995 8.12596 13.3395 8.93056 13.0285 9.68126C12.7176 10.432 12.2618 11.1141 11.6873 11.6886C11.1127 12.2632 10.4306 12.719 9.6799 13.0299C8.92919 13.3409 8.1246 13.5009 7.31204 13.5009C6.49949 13.5009 5.69489 13.3409 4.94419 13.0299C4.19349 12.719 3.51138 12.2632 2.93682 11.6886C2.36226 11.1141 1.90649 10.432 1.59554 9.68126C1.28459 8.93056 1.12454 8.12596 1.12454 7.31341C1.12455 5.67238 1.77644 4.09856 2.93682 2.93818C4.0972 1.7778 5.67102 1.12591 7.31204 1.12591C8.95307 1.12591 10.5269 1.7778 11.6873 2.93818C12.8476 4.09856 13.4995 5.67238 13.4995 7.31341Z" fill="black"/>
</svg>
