<svg width="20" height="14" viewBox="0 0 20 14" fill="none" xmlns="http://www.w3.org/2000/svg">
<path d="M18.24 4.22527H5.71067L4.65265 1.6861C4.51376 1.35165 4.27869 1.06595 3.97722 0.865225C3.67575 0.664499 3.32147 0.557782 2.95927 0.558598H0.820312V2.39193H2.96019L7.3087 12.8282C7.45081 13.1692 7.78545 13.3919 8.15493 13.3919H15.4896C15.8719 13.3919 16.2138 13.1545 16.3486 12.7979L19.0991 5.4646C19.1506 5.32581 19.1679 5.17663 19.1494 5.02975C19.1308 4.88287 19.0771 4.74263 18.9928 4.62096C18.9085 4.49928 18.796 4.39977 18.6649 4.33088C18.5339 4.26199 18.3881 4.22576 18.24 4.22527ZM11.8222 11.5586L9.07176 8.8086H10.9054V6.0586H12.7391V8.8086H14.5727L11.8222 11.5586Z" fill="#555050"/>
</svg>
