<svg width="19" height="31" viewBox="0 0 19 31" fill="none" xmlns="http://www.w3.org/2000/svg">
<path d="M15.371 0C17.29 0 19 1.72606 19 3.62089C19 10.1243 16.7561 9.58921 16.7561 11.8523C16.7561 14.1153 19 14.0942 19 21.4242C19 26.9534 19 30.9847 16.758 30.9847C13.3247 30.9847 15.371 19.1477 9.5 19.1477C3.629 19.1477 5.7 31 2.2439 31C0 31 0 27.0032 0 21.4415C0 14.1057 2.2439 14.1057 2.2439 11.8523C2.2439 9.55085 0 10.1262 0 3.62089C0 1.72606 1.71 0 3.629 0C7.258 0 7.258 1.7625 9.5 1.7625C11.742 1.7625 11.742 0 15.371 0Z" fill="url(#paint0_linear_2321_5778)"/>
<defs>
<linearGradient id="paint0_linear_2321_5778" x1="4.93184e-07" y1="-4" x2="14.5" y2="31" gradientUnits="userSpaceOnUse">
<stop stop-color="#FFD801"/>
<stop offset="1" stop-color="#F4CF00"/>
</linearGradient>
</defs>
</svg>
