<svg width="84" height="80" viewBox="0 0 84 80" fill="none" xmlns="http://www.w3.org/2000/svg">
<g clip-path="url(#clip0_1802_5628)">
<path d="M83.1005 41.2311C84.8788 50.9205 80.5584 63.0151 71.7012 70.8692C62.844 78.7233 49.3587 82.2684 39.2019 78.4953C29.0452 74.7221 22.1373 63.5851 14.8189 52.9154C7.5006 42.2457 -0.296488 32.1003 -0.000107348 21.8524C0.296273 11.6044 8.66333 1.28812 18.0449 0.125393C27.4265 -1.03733 37.834 6.90795 45.9503 11.2283C54.0666 15.5486 59.8574 16.2439 66.6856 20.2565C73.5137 24.269 81.345 31.5531 83.1005 41.2311Z" fill="#EFEFEF"/>
<path d="M60.5645 17.7487H9.81495C8.42424 17.7487 7.0905 18.3011 6.10712 19.2845C5.12374 20.2679 4.57129 21.6016 4.57129 22.9923C4.57129 24.383 5.12374 25.7168 6.10712 26.7001C7.0905 27.6835 8.42424 28.236 9.81495 28.236H60.5645C61.9552 28.236 63.2889 28.7884 64.2723 29.7718C65.2557 30.7552 65.8081 32.0889 65.8081 33.4796V22.9923C65.8081 21.6016 65.2557 20.2679 64.2723 19.2845C63.2889 18.3011 61.9552 17.7487 60.5645 17.7487Z" fill="#CCCCCC"/>
<path d="M65.8079 33.7646C65.7324 33.7646 65.6599 33.7346 65.6064 33.6811C65.553 33.6277 65.523 33.5552 65.523 33.4796C65.526 32.8265 65.3999 32.1793 65.1521 31.575C64.9042 30.9708 64.5394 30.4214 64.0787 29.9586C63.6179 29.4957 63.0703 29.1284 62.4672 28.8778C61.8641 28.6272 61.2174 28.4981 60.5643 28.4982H9.81477C8.34849 28.4982 6.94226 27.9157 5.90543 26.8789C4.86861 25.842 4.28613 24.4358 4.28613 22.9695C4.28613 21.5032 4.86861 20.097 5.90543 19.0602C6.94226 18.0234 8.34849 17.4409 9.81477 17.4409H60.5643C61.2942 17.4379 62.0174 17.5794 62.6923 17.8573C63.3672 18.1352 63.9804 18.544 64.4965 19.0601C65.0126 19.5762 65.4214 20.1894 65.6993 20.8643C65.9772 21.5392 66.1187 22.2624 66.1157 22.9923V33.4796C66.1158 33.5191 66.1078 33.5581 66.0921 33.5942C66.0763 33.6304 66.0533 33.6629 66.0244 33.6897C65.9954 33.7164 65.9613 33.7369 65.924 33.7498C65.8868 33.7627 65.8472 33.7678 65.8079 33.7646ZM9.81477 18.0336C8.49965 18.0336 7.23839 18.5561 6.30846 19.486C5.37853 20.4159 4.8561 21.6772 4.8561 22.9923C4.8561 24.3074 5.37853 25.5687 6.30846 26.4986C7.23839 27.4286 8.49965 27.951 9.81477 27.951H60.5643C61.5971 27.9502 62.6094 28.2393 63.4861 28.7854C64.3627 29.3315 65.0684 30.1128 65.523 31.0402V22.9923C65.523 21.6772 65.0005 20.4159 64.0706 19.486C63.1407 18.5561 61.8794 18.0336 60.5643 18.0336H9.81477Z" fill="#232323"/>
<path d="M65.8078 64.9758C65.8078 66.3665 65.2553 67.7002 64.2719 68.6836C63.2886 69.667 61.9548 70.2195 60.5641 70.2195H9.81463C9.12506 70.221 8.44197 70.0864 7.80447 69.8236C7.16696 69.5607 6.58756 69.1747 6.09943 68.6877C5.6113 68.2006 5.22404 67.622 4.95981 66.9851C4.69558 66.3482 4.55957 65.6654 4.55957 64.9758V22.9923C4.55957 24.383 5.11203 25.7168 6.0954 26.7002C7.07878 27.6835 8.41252 28.236 9.80323 28.236H60.5641C61.9548 28.236 63.2886 28.7884 64.2719 29.7718C65.2553 30.7552 65.8078 32.0889 65.8078 33.4796V64.9758Z" fill="white"/>
<path d="M60.5643 70.4816H9.81477C8.35334 70.4787 6.95229 69.8983 5.91677 68.8671C4.88125 67.8358 4.29515 66.4372 4.28613 64.9758V22.9923C4.28613 22.9167 4.31616 22.8442 4.3696 22.7908C4.42305 22.7374 4.49553 22.7073 4.57111 22.7073C4.6467 22.7073 4.71918 22.7374 4.77263 22.7908C4.82607 22.8442 4.8561 22.9167 4.8561 22.9923C4.8561 24.3074 5.37853 25.5687 6.30846 26.4986C7.23839 27.4286 8.49965 27.951 9.81477 27.951H60.5643C61.2918 27.9495 62.0125 28.0913 62.6852 28.3683C63.3579 28.6454 63.9695 29.0522 64.485 29.5656C65.0005 30.079 65.4098 30.6888 65.6896 31.3604C65.9694 32.032 66.1142 32.7521 66.1157 33.4796V64.9758C66.1067 66.4411 65.5174 67.8432 64.477 68.8751C63.4365 69.907 62.0297 70.4847 60.5643 70.4816ZM4.8561 64.9758C4.85911 66.29 5.3825 67.5495 6.31178 68.4788C7.24107 69.4081 8.50057 69.9315 9.81477 69.9345H60.5643C61.8794 69.9345 63.1407 69.412 64.0706 68.4821C65.0005 67.5522 65.5229 66.2909 65.5229 64.9758V33.4796C65.526 32.8265 65.3999 32.1793 65.1521 31.575C64.9042 30.9708 64.5394 30.4214 64.0787 29.9586C63.6179 29.4957 63.0703 29.1284 62.4672 28.8778C61.8641 28.6272 61.2174 28.4982 60.5643 28.4982H9.81477C8.78223 28.4977 7.77045 28.208 6.89406 27.662C6.01767 27.1161 5.31169 26.3356 4.8561 25.409V64.9758Z" fill="#232323"/>
<path d="M65.7966 39.3844V55.1154C65.8151 55.6185 65.6336 56.1084 65.2918 56.478C64.9499 56.8476 64.4757 57.0667 63.9727 57.0875H52.4366C52.0806 57.0857 51.7308 56.9939 51.4199 56.8205C51.1089 56.647 50.8469 56.3977 50.6583 56.0957L47.1018 50.3163C46.8955 49.9865 46.7861 49.6053 46.7861 49.2163C46.7861 48.8273 46.8955 48.4461 47.1018 48.1163L50.6925 42.3026C50.8701 42.011 51.1194 41.7699 51.4168 41.6022C51.7142 41.4346 52.0496 41.346 52.391 41.3451H64.0183C64.5111 41.3128 64.9721 41.0903 65.304 40.7244C65.6358 40.3586 65.8124 39.8781 65.7966 39.3844Z" fill="#FFD801"/>
<path d="M63.9724 57.3725H52.4363C52.0304 57.3721 51.6314 57.267 51.2779 57.0673C50.9245 56.8676 50.6285 56.5801 50.4187 56.2325L46.8507 50.4531C46.621 50.0773 46.4995 49.6454 46.4995 49.2049C46.4995 48.7644 46.621 48.3325 46.8507 47.9567L50.3959 42.1773C50.5938 41.8343 50.8777 41.5489 51.2195 41.349C51.5613 41.1491 51.9492 41.0417 52.3451 41.0373H63.9724C64.3978 41.0166 64.7978 40.8291 65.0859 40.5154C65.3739 40.2018 65.5268 39.7872 65.5113 39.3616C65.5113 39.2861 65.5413 39.2136 65.5948 39.1601C65.6482 39.1067 65.7207 39.0767 65.7963 39.0767C65.8719 39.0767 65.9443 39.1067 65.9978 39.1601C66.0512 39.2136 66.0813 39.2861 66.0813 39.3616V55.0926C66.0935 55.381 66.0485 55.669 65.949 55.9399C65.8494 56.2109 65.6973 56.4595 65.5012 56.6714C65.3052 56.8833 65.0692 57.0543 64.8068 57.1747C64.5445 57.295 64.2609 57.3622 63.9724 57.3725ZM52.3451 41.6301C52.0524 41.6325 51.765 41.709 51.5099 41.8526C51.2547 41.9961 51.0401 42.2019 50.886 42.4508L47.2953 48.2645C47.1172 48.5479 47.0227 48.8759 47.0227 49.2106C47.0227 49.5454 47.1172 49.8733 47.2953 50.1567L50.8632 55.9476C51.0249 56.2075 51.2498 56.4222 51.5169 56.5717C51.784 56.7212 52.0847 56.8006 52.3907 56.8025H63.9724C64.3988 56.7789 64.7988 56.5889 65.0866 56.2735C65.3744 55.958 65.5269 55.5422 65.5113 55.1154V40.9233C65.3194 41.1433 65.083 41.32 64.8177 41.4419C64.5524 41.5637 64.2643 41.6279 63.9724 41.6301H52.3451Z" fill="#232323"/>
<path d="M55.5486 46.5888C56.0671 46.5888 56.574 46.7425 57.0052 47.0306C57.4364 47.3187 57.7724 47.7282 57.9708 48.2073C58.1693 48.6864 58.2212 49.2135 58.12 49.7221C58.0189 50.2307 57.7692 50.6979 57.4025 51.0645C57.0358 51.4312 56.5687 51.6809 56.0601 51.7821C55.5515 51.8832 55.0243 51.8313 54.5453 51.6329C54.0662 51.4344 53.6567 51.0984 53.3686 50.6672C53.0805 50.2361 52.9268 49.7292 52.9268 49.2106C52.9268 48.5153 53.203 47.8484 53.6947 47.3567C54.1864 46.865 54.8532 46.5888 55.5486 46.5888Z" fill="white"/>
<path d="M55.5483 52.1288C54.9706 52.1311 54.4053 51.9618 53.9239 51.6426C53.4425 51.3233 53.0667 50.8683 52.8441 50.3353C52.6215 49.8023 52.562 49.2151 52.6733 48.6483C52.7847 48.0815 53.0617 47.5604 53.4693 47.1512C53.877 46.7419 54.397 46.4629 54.9633 46.3493C55.5297 46.2358 56.1171 46.2929 56.651 46.5135C57.1849 46.734 57.6413 47.108 57.9625 47.5882C58.2836 48.0683 58.4551 48.633 58.4551 49.2106C58.4551 49.9826 58.1492 50.7231 57.6044 51.2701C57.0596 51.817 56.3202 52.1258 55.5483 52.1288ZM55.5483 46.8738C55.0829 46.8715 54.6273 47.0076 54.2394 47.2648C53.8515 47.5219 53.5487 47.8885 53.3696 48.3181C53.1904 48.7476 53.143 49.2207 53.2332 49.6773C53.3235 50.1339 53.5473 50.5533 53.8764 50.8824C54.2055 51.2115 54.625 51.4354 55.0816 51.5257C55.5381 51.6159 56.0112 51.5684 56.4408 51.3893C56.8703 51.2102 57.237 50.9074 57.4941 50.5195C57.7513 50.1316 57.8874 49.676 57.8851 49.2106C57.8851 48.5908 57.6389 47.9965 57.2007 47.5582C56.7624 47.12 56.168 46.8738 55.5483 46.8738Z" fill="#232323"/>
<path d="M6.83942 64.9758V27.3582C6.13663 26.8779 5.56165 26.2333 5.16436 25.4804C4.76707 24.7276 4.55947 23.8891 4.55957 23.0379V64.9758C4.55957 66.3665 5.11203 67.7002 6.0954 68.6836C7.07878 69.667 8.41252 70.2194 9.80323 70.2194H12.0831C10.6924 70.2194 9.35863 69.667 8.37525 68.6836C7.39188 67.7002 6.83942 66.3665 6.83942 64.9758Z" fill="#E0E0E0"/>
<path d="M60.5643 70.4816H9.81477C8.35334 70.4787 6.95229 69.8983 5.91677 68.8671C4.88125 67.8358 4.29515 66.4372 4.28613 64.9758V22.9923C4.28613 22.9167 4.31616 22.8442 4.3696 22.7908C4.42305 22.7374 4.49553 22.7073 4.57111 22.7073C4.6467 22.7073 4.71918 22.7374 4.77263 22.7908C4.82607 22.8442 4.8561 22.9167 4.8561 22.9923C4.8561 24.3074 5.37853 25.5687 6.30846 26.4986C7.23839 27.4286 8.49965 27.951 9.81477 27.951H60.5643C61.2918 27.9495 62.0125 28.0913 62.6852 28.3683C63.3579 28.6454 63.9695 29.0522 64.485 29.5656C65.0005 30.079 65.4098 30.6888 65.6896 31.3604C65.9694 32.032 66.1142 32.7521 66.1157 33.4796V64.9758C66.1067 66.4411 65.5174 67.8432 64.477 68.8751C63.4365 69.907 62.0297 70.4847 60.5643 70.4816ZM4.8561 64.9758C4.85911 66.29 5.3825 67.5495 6.31178 68.4788C7.24107 69.4081 8.50057 69.9315 9.81477 69.9345H60.5643C61.8794 69.9345 63.1407 69.412 64.0706 68.4821C65.0005 67.5522 65.5229 66.2909 65.5229 64.9758V33.4796C65.526 32.8265 65.3999 32.1793 65.1521 31.575C64.9042 30.9708 64.5394 30.4214 64.0787 29.9586C63.6179 29.4957 63.0703 29.1284 62.4672 28.8778C61.8641 28.6272 61.2174 28.4982 60.5643 28.4982H9.81477C8.78223 28.4977 7.77045 28.208 6.89406 27.662C6.01767 27.1161 5.31169 26.3356 4.8561 25.409V64.9758Z" fill="#232323"/>
<path d="M6.83942 22.9923C6.83942 21.6016 7.39188 20.2679 8.37525 19.2845C9.35863 18.3011 10.6924 17.7487 12.0831 17.7487H9.80323C8.41252 17.7487 7.07878 18.3011 6.0954 19.2845C5.11203 20.2679 4.55957 21.6016 4.55957 22.9923C4.55957 24.383 5.11203 25.7168 6.0954 26.7001C7.07878 27.6835 8.41252 28.236 9.80323 28.236H12.0831C10.6924 28.236 9.35863 27.6835 8.37525 26.7001C7.39188 25.7168 6.83942 24.383 6.83942 22.9923Z" fill="#AAAAAA"/>
<path d="M65.8079 33.7646C65.7324 33.7646 65.6599 33.7346 65.6064 33.6811C65.553 33.6277 65.523 33.5552 65.523 33.4796C65.526 32.8265 65.3999 32.1793 65.1521 31.575C64.9042 30.9708 64.5394 30.4214 64.0787 29.9586C63.6179 29.4957 63.0703 29.1284 62.4672 28.8778C61.8641 28.6272 61.2174 28.4981 60.5643 28.4982H9.81477C8.34849 28.4982 6.94226 27.9157 5.90543 26.8789C4.86861 25.842 4.28613 24.4358 4.28613 22.9695C4.28613 21.5032 4.86861 20.097 5.90543 19.0602C6.94226 18.0234 8.34849 17.4409 9.81477 17.4409H60.5643C61.2942 17.4379 62.0174 17.5794 62.6923 17.8573C63.3672 18.1352 63.9804 18.544 64.4965 19.0601C65.0126 19.5762 65.4214 20.1894 65.6993 20.8643C65.9772 21.5392 66.1187 22.2624 66.1157 22.9923V33.4796C66.1158 33.5191 66.1078 33.5581 66.0921 33.5942C66.0763 33.6304 66.0533 33.6629 66.0244 33.6897C65.9954 33.7164 65.9613 33.7369 65.924 33.7498C65.8868 33.7627 65.8472 33.7678 65.8079 33.7646ZM9.81477 18.0336C8.49965 18.0336 7.23839 18.5561 6.30846 19.486C5.37853 20.4159 4.8561 21.6772 4.8561 22.9923C4.8561 24.3074 5.37853 25.5687 6.30846 26.4986C7.23839 27.4286 8.49965 27.951 9.81477 27.951H60.5643C61.5971 27.9502 62.6094 28.2393 63.4861 28.7854C64.3627 29.3315 65.0684 30.1128 65.523 31.0402V22.9923C65.523 21.6772 65.0005 20.4159 64.0706 19.486C63.1407 18.5561 61.8794 18.0336 60.5643 18.0336H9.81477Z" fill="#232323"/>
<path d="M51.7754 22.9923H12.4365L13.7474 17.7486L14.3516 15.3662C14.4426 14.9945 14.6078 14.6451 14.8372 14.339C15.0666 14.0328 15.3556 13.7762 15.6868 13.5845C16.0179 13.3928 16.3844 13.2701 16.7642 13.2237C17.144 13.1772 17.5292 13.2081 17.8968 13.3143L33.4226 17.7486L51.7754 22.9923Z" fill="#FFD801"/>
<path d="M51.7752 23.2773H12.4363C12.3942 23.2748 12.3531 23.2634 12.3157 23.2437C12.2784 23.224 12.2457 23.1966 12.2198 23.1633C12.1914 23.1311 12.1714 23.0924 12.1614 23.0507C12.1515 23.009 12.1519 22.9654 12.1628 22.9239L14.0778 15.2864C14.1755 14.8758 14.3554 14.4892 14.6067 14.15C14.8579 13.8108 15.1753 13.5261 15.5397 13.313C15.9041 13.1 16.3079 12.9629 16.7267 12.9103C17.1455 12.8576 17.5706 12.8903 17.9764 13.0066L51.855 22.6845C51.9215 22.7008 51.9795 22.7415 52.0175 22.7985C52.0555 22.8555 52.0707 22.9246 52.0602 22.9923C52.0602 23.0297 52.0528 23.0668 52.0385 23.1014C52.0241 23.1359 52.0032 23.1674 51.9767 23.1938C51.9502 23.2203 51.9188 23.2413 51.8842 23.2556C51.8497 23.2699 51.8126 23.2773 51.7752 23.2773ZM12.8011 22.7073H49.7461L17.8282 13.5879C17.4973 13.492 17.1504 13.464 16.8084 13.5056C16.4664 13.5472 16.1364 13.6576 15.8382 13.8301C15.54 14.0027 15.2798 14.2338 15.0733 14.5095C14.8667 14.7852 14.7181 15.0999 14.6364 15.4346L12.8011 22.7073Z" fill="#232323"/>
<path d="M16.6315 15.3662C16.7384 14.934 16.946 14.5333 17.2372 14.1965C17.5284 13.8598 17.895 13.5966 18.3071 13.4283L17.8968 13.3143C17.5292 13.2081 17.144 13.1772 16.7642 13.2237C16.3844 13.2701 16.0179 13.3928 15.6868 13.5845C15.3556 13.7762 15.0666 14.0328 14.8372 14.339C14.6078 14.6451 14.4426 14.9945 14.3516 15.3662L13.7474 17.7486L12.4365 22.9923H14.7164L16.0273 17.7486L16.6315 15.3662Z" fill="#FFD801"/>
<path d="M51.7752 23.2773H12.4363C12.3942 23.2748 12.3531 23.2634 12.3157 23.2437C12.2784 23.224 12.2457 23.1966 12.2198 23.1633C12.1914 23.1311 12.1714 23.0924 12.1614 23.0507C12.1515 23.009 12.1519 22.9654 12.1628 22.9239L14.0778 15.2864C14.1755 14.8758 14.3554 14.4892 14.6067 14.15C14.8579 13.8108 15.1753 13.5261 15.5397 13.313C15.9041 13.1 16.3079 12.9629 16.7267 12.9103C17.1455 12.8576 17.5706 12.8903 17.9764 13.0066L51.855 22.6845C51.9215 22.7008 51.9795 22.7415 52.0175 22.7985C52.0555 22.8555 52.0707 22.9246 52.0602 22.9923C52.0602 23.0297 52.0528 23.0668 52.0385 23.1014C52.0241 23.1359 52.0032 23.1674 51.9767 23.1938C51.9502 23.2203 51.9188 23.2413 51.8842 23.2556C51.8497 23.2699 51.8126 23.2773 51.7752 23.2773ZM12.8011 22.7073H49.7461L17.8282 13.5879C17.4973 13.492 17.1504 13.464 16.8084 13.5056C16.4664 13.5472 16.1364 13.6576 15.8382 13.8301C15.54 14.0027 15.2798 14.2338 15.0733 14.5095C14.8667 14.7852 14.7181 15.0999 14.6364 15.4346L12.8011 22.7073Z" fill="#232323"/>
<path d="M52.8923 56.0957L49.3357 50.3163C49.1295 49.9865 49.0201 49.6053 49.0201 49.2163C49.0201 48.8273 49.1295 48.4461 49.3357 48.1163L52.9265 42.3026C53.104 42.011 53.3534 41.7699 53.6508 41.6022C53.9482 41.4346 54.2836 41.346 54.625 41.3451H52.3451C52.0037 41.346 51.6683 41.4346 51.3709 41.6022C51.0735 41.7699 50.8242 42.011 50.6466 42.3026L47.0559 48.1163C46.8496 48.4461 46.7402 48.8273 46.7402 49.2163C46.7402 49.6053 46.8496 49.9865 47.0559 50.3163L50.6124 56.0957C50.801 56.3977 51.063 56.647 51.374 56.8205C51.6849 56.9939 52.0347 57.0857 52.3907 57.0875H54.6706C54.3146 57.0857 53.9648 56.9939 53.6538 56.8205C53.3429 56.647 53.0809 56.3977 52.8923 56.0957Z" fill="#FFD801"/>
<path d="M65.7965 41.3451V39.3844C65.812 39.8856 65.6291 40.3726 65.2876 40.7397C64.9461 41.1068 64.4736 41.3243 63.9727 41.3451H65.7965Z" fill="#FFD801"/>
<path d="M63.9724 57.3725H52.4363C52.0304 57.3721 51.6314 57.267 51.2779 57.0673C50.9245 56.8676 50.6285 56.5801 50.4187 56.2325L46.8507 50.4531C46.621 50.0773 46.4995 49.6454 46.4995 49.2049C46.4995 48.7644 46.621 48.3325 46.8507 47.9567L50.3959 42.1773C50.5938 41.8343 50.8777 41.5489 51.2195 41.349C51.5613 41.1491 51.9492 41.0417 52.3451 41.0373H63.9724C64.3978 41.0166 64.7978 40.8291 65.0859 40.5154C65.3739 40.2018 65.5268 39.7872 65.5113 39.3616C65.5113 39.2861 65.5413 39.2136 65.5948 39.1601C65.6482 39.1067 65.7207 39.0767 65.7963 39.0767C65.8719 39.0767 65.9443 39.1067 65.9978 39.1601C66.0512 39.2136 66.0813 39.2861 66.0813 39.3616V55.0926C66.0935 55.381 66.0485 55.669 65.949 55.9399C65.8494 56.2109 65.6973 56.4595 65.5012 56.6714C65.3052 56.8833 65.0692 57.0543 64.8068 57.1747C64.5445 57.295 64.2609 57.3622 63.9724 57.3725ZM52.3451 41.6301C52.0524 41.6325 51.765 41.709 51.5099 41.8526C51.2547 41.9961 51.0401 42.2019 50.886 42.4508L47.2953 48.2645C47.1172 48.5479 47.0227 48.8759 47.0227 49.2106C47.0227 49.5454 47.1172 49.8733 47.2953 50.1567L50.8632 55.9476C51.0249 56.2075 51.2498 56.4222 51.5169 56.5717C51.784 56.7212 52.0847 56.8006 52.3907 56.8025H63.9724C64.3988 56.7789 64.7988 56.5889 65.0866 56.2735C65.3744 55.958 65.5269 55.5422 65.5113 55.1154V40.9233C65.3194 41.1433 65.083 41.32 64.8177 41.4419C64.5524 41.5637 64.2643 41.6279 63.9724 41.6301H52.3451Z" fill="#232323"/>
</g>
<defs>
<clipPath id="clip0_1802_5628">
<rect width="83.4882" height="80" fill="white"/>
</clipPath>
</defs>
</svg>
